<?xml version="1.0" encoding="utf-8"?>
<!-- Generator: Adobe Illustrator 15.1.0, SVG Export Plug-In . SVG Version: 6.00 Build 0)  -->
<!DOCTYPE svg PUBLIC "-//W3C//DTD SVG 1.1//EN" "http://www.w3.org/Graphics/SVG/1.1/DTD/svg11.dtd">
<svg version="1.1" id="Capa_1" xmlns="http://www.w3.org/2000/svg" xmlns:xlink="http://www.w3.org/1999/xlink" x="0px" y="0px"
	 width="114px" height="50px" viewBox="0 0 114 50" enable-background="new 0 0 114 50" xml:space="preserve">
<g>
	<g>
		<g>
			<path fill="#1F181C" d="M57.087,0.993c-4.68,0-8.498,4.598-8.498,10.238c0,5.642,3.817,10.24,8.498,10.24
				c4.684,0,8.502-4.6,8.502-10.24C65.59,5.591,61.771,0.996,57.087,0.993"/>
			<path fill="#D5B079" d="M57.087,21.382c-4.639,0-8.419-4.556-8.419-10.149c0-5.59,3.78-10.153,8.419-10.153
				s8.42,4.563,8.42,10.153C65.508,16.826,61.727,21.382,57.087,21.382"/>
			<path fill="#FFFFFF" d="M57.087,19.939c-3.86,0-7.003-3.912-7.003-8.708c0-4.792,3.144-8.706,7.003-8.706
				c3.862,0.003,7.01,3.913,7.01,8.706C64.098,16.027,60.949,19.939,57.087,19.939"/>
			<path fill="#1D1E1C" d="M55.907,11.193L55.907,11.193c-0.006,0.085-0.049,0.106-0.096,0.116
				c-0.048,0.011-0.171,0.016-0.171,0.016s0.08-0.058,0.043-0.127c0,0,0.096-0.105,0.027-0.095c-0.07,0.01-0.172,0.118-0.172,0.138
				c0,0.021,0.016,0.075-0.021,0.063c-0.038-0.01-0.07-0.054,0.053-0.165c0.112-0.1,0.33-0.127,0.33-0.127s0.07-0.022,0.07,0.037
				C55.972,11.108,55.912,11.108,55.907,11.193 M55.417,11.474L55.417,11.474c-0.042,0.047-0.048,0.122-0.068,0.085
				c-0.021-0.038-0.043-0.038-0.021-0.175c0,0,0.09,0.01,0.09-0.017s0.006,0.026,0.059,0.026
				C55.529,11.394,55.46,11.426,55.417,11.474 M55.321,11.156L55.321,11.156c0.054-0.116,0.133-0.127,0.17-0.148
				c0.038-0.021,0.087-0.079,0.107-0.148c0,0,0.068-0.032,0.068,0.069c0,0.1-0.063,0.143-0.144,0.19
				c-0.08,0.047-0.085,0.18-0.148,0.18C55.311,11.299,55.268,11.272,55.321,11.156 M56.302,10.949L56.302,10.949
				c-0.088-0.152-0.204-0.09-0.204-0.09c0.006,0.063-0.347,0.052-0.347,0.052s-0.01-0.073-0.085-0.132
				c-0.074-0.059-0.176,0.149-0.218,0.181c-0.042,0.03-0.133,0.042-0.208,0.233c-0.074,0.191,0.011,0.186,0.011,0.186
				c-0.043,0.28,0.075,0.349,0.134,0.366c0.058,0.016,0.026-0.111,0.026-0.111c0.037-0.012,0.054-0.075,0.054-0.075
				c0.122-0.038,0.143-0.106,0.143-0.106s0.092,0,0.197-0.032c0.106-0.032,0.171-0.143,0.171-0.143s0.063-0.043,0.154-0.085
				c0.091-0.042,0.166-0.022,0.166-0.022S56.349,11.034,56.302,10.949 M60.672,9.731L60.672,9.731
				c-0.074,0.031-0.08,0.021-0.277,0.026c-0.197,0.005-0.313-0.111-0.313-0.111c0.133,0.057,0.303,0.005,0.383-0.038
				s0.059,0,0.254,0.012c0.197,0.01,0.215,0.031,0.215,0.062C60.934,9.715,60.748,9.698,60.672,9.731 M60.029,9.863L60.029,9.863
				c-0.16,0.032-0.213-0.027-0.277-0.069c-0.063-0.042-0.063,0.005-0.063,0.005s0.195,0.122-0.086,0.122
				c-0.197,0-0.395-0.137-0.395-0.137s0.043,0.073-0.053,0.094c-0.152,0.034-0.271-0.074-0.271-0.074S58.846,9.9,58.746,9.9
				c-0.203,0-0.357-0.206-0.357-0.206c-0.033-0.06,0.043-0.033,0.043-0.033s0.213,0.123,0.324,0.132
				c0.111,0.011,0.031-0.063,0.031-0.063s-0.121-0.085-0.191-0.127c-0.068-0.042,0.018-0.053,0.018-0.053s0.182,0.122,0.346,0.191
				c0.164,0.067,0.16,0.005,0.16,0.005s-0.182-0.144-0.225-0.186c-0.043-0.042-0.027-0.085,0.018-0.037
				c0.041,0.047,0.441,0.261,0.51,0.281c0.068,0.021,0.137-0.011,0.053-0.053s-0.213-0.181-0.262-0.239
				c-0.047-0.058,0.08-0.016,0.08-0.016c0.139,0.111,0.363,0.223,0.506,0.239c0.145,0.016,0.064-0.069,0.064-0.069
				s-0.197-0.091-0.234-0.159s0.113-0.016,0.113-0.016s0.271,0.196,0.359,0.26C60.193,9.815,60.188,9.831,60.029,9.863
				 M58.064,9.513L58.064,9.513c-0.278,0.038-0.383,0.138-0.442,0.25c-0.059,0.112-0.293,0.435-0.426,0.536
				c-0.135,0.101-0.215,0.222-0.236,0.296c-0.02,0.075-0.059,0.149-0.086,0.063c-0.025-0.084-0.217-0.095-0.217-0.095
				c-0.043-0.142,0.111-0.026,0.617-0.498c0.213-0.197,0.32-0.429,0.406-0.562c0.084-0.132,0.346-0.164,0.682-0.164
				c0.334,0,0.895-0.111,1.08-0.111s0,0.048,0,0.048S58.34,9.476,58.064,9.513 M56.503,9.98L56.503,9.98
				c-0.053,0.064-0.154,0-0.25-0.159c-0.095-0.16-0.231-0.51-0.246-0.567c-0.016-0.059-0.021-0.059-0.101-0.134
				c-0.08-0.074-0.267-0.238-0.304-0.391c0,0-0.025-0.18,0.054-0.064c0.08,0.117,0.304,0.323,0.409,0.372
				c0.107,0.047,0.145,0.159,0.15,0.259c0.005,0.101,0.138,0.429,0.203,0.472C56.482,9.809,56.556,9.916,56.503,9.98 M55.194,9.11
				L55.194,9.11c-0.315-0.052-0.188-0.218-0.188-0.218S54.9,8.915,54.81,8.83c-0.076-0.072,0.038-0.165,0.038-0.165
				s-0.288-0.005-0.256-0.18c0.032-0.174,0.453-0.063,0.453-0.063c0.059,0.053-0.016,0.026-0.139,0.031
				c-0.122,0.005-0.032,0.105-0.032,0.105c0.229,0.122,0.335,0.138,0.335,0.138c-0.276,0.006-0.202,0.127-0.021,0.159
				c0.181,0.032,0.128,0.043,0.128,0.043c-0.442,0.063,0.271,0.185,0.297,0.211C55.641,9.137,55.508,9.164,55.194,9.11
				 M63.154,10.191c0,0-0.305,0.011-0.539-0.021c-0.234-0.031-1.549-0.557-1.58-0.604c-0.033-0.047,0.047-0.064,0.047-0.117
				c0-0.052-0.121-0.036-0.266-0.036s-0.672-0.244-0.852-0.296c-0.18-0.054-0.262-0.144-0.502-0.07
				c-0.238,0.074-1.426,0.143-1.485,0.143c-0.057,0-0.256,0.059-0.352,0.219c-0.125,0.207-0.645,0.725-0.703,0.741
				c-0.059,0.016-0.217-0.091-0.244-0.133c-0.025-0.042-0.102-0.254-0.176-0.583c-0.074-0.33-0.197-0.429-0.266-0.488
				c-0.07-0.058-1.054-0.975-1.188-1.091c-0.133-0.116-0.261-0.095-0.261-0.095l-1.023,0.005c-0.201,0.139,0.41,0.144,0.506,0.144
				c0.097,0,0.043,0.059,0.043,0.059c-0.479,0.047,0.091,0.122,0.256,0.132c0.166,0.011,0.074,0.047,0.074,0.047
				c-0.206,0.006-0.292,0.122-0.127,0.149s0.117,0.063,0.117,0.063c-0.459,0.037-0.399-0.186-0.399-0.186
				c-0.416,0.08-0.41-0.18-0.41-0.18c-0.495-0.048-0.239-0.207-0.239-0.207S52.281,7.78,52.212,7.78s-0.395-0.074-0.395-0.074
				c-0.069,0.005-0.037,0.053,0.075,0.18c0.111,0.127,0.532,0.165,0.729,0.138c0.197-0.026,0.042,0.047,0.042,0.047
				c-0.196,0.08-0.452,0-0.543,0S52.11,8.135,52.26,8.236c0.148,0.102,0.55,0.097,0.835,0.068c0.289-0.025,0.069,0.028,0.069,0.028
				c-0.239,0.084-0.489,0.074-0.702,0.057c-0.213-0.016,0.097,0.212,0.299,0.245c0.201,0.031,0.511-0.149,0.596-0.096
				c0.085,0.053-0.197,0.101-0.368,0.143c-0.169,0.042-0.281,0.08-0.016,0.181c0.268,0.101,0.518-0.053,0.66-0.069
				c0.145-0.015,0.049,0.053,0.049,0.053c-0.257,0.09-0.155,0-0.319,0.079c-0.165,0.08,0.182,0.143,0.281,0.133
				c0.103-0.011,0.421-0.09,0.459-0.102C54.14,8.946,54.214,8.909,54.14,9c-0.075,0.089-0.32,0.127-0.32,0.127
				s-0.297,0.082-0.073,0.175c0.251,0.103,0.323,0.01,0.394-0.032c0.097-0.059,0.159-0.037,0.096,0
				c-0.064,0.037-0.064,0.063-0.064,0.063c0.23,0.148,0.453-0.046,0.555-0.068c0.101-0.021,0.026,0.016-0.027,0.101
				c-0.054,0.084,0.347,0.053,0.347,0.053c0.127,0.159,0.229,0.106,0.229,0.106s-0.107,0.122-0.022,0.27
				c0.086,0.149,0.145,0.011,0.208-0.047c0.063-0.059,0.037,0.01,0.026,0.062c-0.011,0.054-0.043,0.117,0.043,0.255
				c0.107,0.174,0.111,0,0.111-0.063s0.091-0.191,0.117-0.191c0.027,0-0.021,0.134-0.021,0.266c0,0.131,0.271,0.175,0.298,0.175
				c0.026,0,0.058-0.397,0.058-0.397s0.006,0.37,0.081,0.455c0.074,0.084,0.164,0.079,0.164,0.112c0,0.031-0.072,0.073-0.121,0.105
				c-0.049,0.033-0.106,0.033-0.171,0.059c-0.063,0.027-0.188,0.122-0.145,0.196c0.043,0.075,0.064-0.005,0.064-0.005
				c0.011-0.132,0.229-0.148,0.315-0.121c0.084,0.026,0.021-0.102,0.021-0.102s0.17-0.196,0.291-0.169
				c0.123,0.027-0.01,0.085-0.127,0.154s-0.037,0.132-0.016,0.158c0.021,0.027,0.148,0.085,0.09,0.217
				c-0.059,0.133-0.016,0.165,0,0.255s-0.139,0.112-0.197,0.122c-0.059,0.011-0.086,0.064-0.047,0.053
				c0.139-0.04,0.148,0.032,0.377,0.048c0.229,0.016,0.234-0.09,0.367-0.101c0.133-0.01,0.102-0.059,0.191-0.059
				c0.092,0,0.055,0.069-0.01,0.159c-0.064,0.089-0.139,0.164-0.068,0.211c0.068,0.049,0.068-0.016,0.105-0.042
				c0.037-0.027,0.037,0.084,0.148,0.137c0.098,0.046,0.113-0.127,0.135-0.201c0.021-0.073,0.059-0.026,0.059-0.026
				c0.004,0.238,0,0.234,0.074,0.238c0.074,0.005,0.111-0.138,0.111-0.195c0-0.059,0.016-0.107,0.031-0.043
				c0.018,0.063,0.225,0.297,0.311,0.308c0.084,0.01,0.021-0.085,0-0.142c-0.023-0.06-0.012-0.106-0.012-0.106
				s0.223,0.229,0.293,0.206c0.16-0.053,0.127-0.063,0.105-0.19c-0.02-0.128-0.488-0.78-0.516-0.826
				c-0.027-0.049-0.037-0.081,0.069-0.043c0.107,0.037,0.076-0.025,0.119-0.112c0.041-0.084,0.176-0.18,0.207-0.18
				s0.283,0.186,0.457,0.307c0.176,0.124,0.293,0.16,0.465,0.127c0.168-0.032-0.027-0.073-0.064-0.159
				c-0.039-0.084,0.09-0.047,0.09-0.047s0.234,0.169,0.283,0.196c0.047,0.026,0.26,0.037,0.174-0.063
				c-0.084-0.101-0.057-0.138-0.057-0.197c0-0.058,0.201,0.128,0.293,0.208c0.088,0.079,0.291,0.021,0.291,0.021
				c0.34,0.466,0.906,0.662,1.053,0.668c0.15,0.005,0.045-0.081-0.01-0.106c-0.051-0.027-0.127-0.089-0.182-0.169
				c-0.053-0.079-0.008-0.074,0.049-0.042c0.059,0.032,0.389,0.143,0.549,0.148c0.16,0.006,0.037-0.075-0.061-0.175
				c-0.094-0.1-0.387-0.297-0.463-0.366c-0.074-0.069,0.033-0.075,0.066-0.047c0.031,0.025,0.244,0.084,0.479,0.328
				c0.234,0.244,0.408,0.175,0.436,0.127c0.041-0.071-0.074-0.206-0.254-0.382c-0.182-0.174-0.564-0.328-0.693-0.424
				c-0.127-0.095,0.107-0.01,0.107-0.01c0.43,0.244,0.926,0.408,1.076,0.424c0.146,0.016,0.439-0.005,0.484-0.138
				c0.041-0.133-0.162-0.042-0.428-0.106c-0.199-0.047-0.6-0.181-0.723-0.27c-0.123-0.091,0.068-0.028,0.068-0.028
				c0.777,0.33,1.092,0.229,1.092,0.229C63.393,10.314,63.154,10.191,63.154,10.191"/>
			<path fill="#005187" d="M52.402,5.398c3.148,0.005,6.225-0.002,9.369,0l0.148,0.184c-1.824-0.001-3.158-0.002-4.502-0.003
				c0.078,0.088,0.064,0.315-0.283,0.001h-0.098c-0.166,0.022-0.293,0.062-0.461,0.124c-0.18,0.067-0.417,0.079-0.615,0.174
				c-0.17,0.096-0.451,0.613-0.85,0.91c-0.203,0.15-0.441,0.254-0.57,0.359c-0.109-0.021-0.31,0.068-0.45,0.198
				c-0.148,0.017-0.169-0.04-0.255-0.061c-0.104,0.006-0.338,0.23-0.368,0.23l-0.369,0.001l-0.112-0.187l0.443,0.003
				c0.121-0.049,0.241-0.127,0.365-0.15c0.123-0.022,0.192,0.055,0.222,0.042l0.431-0.197l-3.065,0.001l0.091-0.179L54.74,6.85
				c0.196-0.07,0.403-0.249,0.478-0.3H51.63l0.106-0.186l3.665-0.002c0.086-0.073,0.166-0.228,0.242-0.297l-3.722,0.001l0.122-0.183
				l3.742-0.002c0.171-0.148,0.506-0.209,0.764-0.301c-1.242,0-2.553,0.001-4.292,0.002L52.402,5.398z M63.127,7.807l-2.051,0
				c0.123,0.002,0.25,0.135,0.326,0.239c0.078,0.016,0.225-0.1,0.436,0.011c0.061,0.032,0.246-0.058,0.555,0.084
				c0.141-0.206,0.551-0.166,0.734-0.048l0.066-0.099L63.127,7.807z M60.152,7.757c0.055-0.005,0.129-0.01,0.227-0.01
				c0.232,0,0.297-0.101,0.297-0.101s0.279-0.082,0.279-0.009c0,0.071,0.049,0.115-0.047,0.115c-0.094,0-0.305,0.055-0.387,0.078
				c-0.082,0.021-0.299,0.107-0.377,0.069c-0.045-0.023-0.068-0.044-0.082-0.068c-0.086-0.024-0.201-0.053-0.365-0.076
				c-0.166-0.009-0.078-0.156-0.078-0.156C59.834,7.632,60.02,7.681,60.152,7.757 M63.012,7.508
				c-0.016-0.036-0.063-0.147-0.076-0.184l-4.107,0c0.049,0.076,0.113,0.166,0.33,0.272c0.092,0.05,0.217-0.023,0.074-0.088H63.012z
				 M62.707,6.841l-4.262,0l0.227,0.282c0.031,0.038,0.107,0.071,0.131,0.061c0.023-0.011,0.07-0.032,0.01-0.157l3.984-0.001
				C62.781,6.987,62.723,6.877,62.707,6.841 M62.447,6.358l-4.389,0l0.195,0.246c0.039,0.056,0.145,0.113,0.18,0.1
				c0.023-0.008,0.07-0.058-0.006-0.162l4.119,0.003L62.447,6.358z M62.262,6.063l-4.276-0.004c0.065,0.122,0.006,0.161-0.023,0.162
				c-0.025,0.002-0.096-0.056-0.113-0.073c-0.1-0.095-0.221-0.187-0.322-0.273l4.608-0.001L62.262,6.063z M61.525,5.096
				l-8.876,0.002l0.174-0.183l8.521-0.008L61.525,5.096z M61.027,4.618L53.122,4.62l0.211-0.187h7.487L61.027,4.618z M53.978,3.951
				l6.198-0.001l0.266,0.184l-6.734-0.001C53.812,4.055,53.868,4.024,53.978,3.951 M57.089,2.985
				c0.494,0.005,1.026,0.096,1.358,0.183h-2.742C56.158,3.04,56.619,2.979,57.089,2.985 M59.674,3.65h-5.191
				c0.14-0.078,0.205-0.112,0.372-0.184c1.481,0,2.961,0,4.444,0C59.439,3.527,59.563,3.589,59.674,3.65 M51.168,7.515h0.127
				c0.098-0.128,0.293-0.002,0.364-0.001l0.324-0.002c0.08,0,0.499-0.21,0.642-0.25c0-0.03,0.003-0.104,0.003-0.135
				c-0.323,0.066-0.557,0.39-1.028,0.2l-0.353,0.001L51.168,7.515z"/>
			<path fill="#B20933" d="M50.946,14.087c0.862,2.729,3.02,5.324,6.168,5.324c3.122-0.024,5.288-2.616,6.116-5.324H50.946z"/>
			<path fill="#005187" d="M60.125,12.844l-0.076-0.049l-0.326,0.485l0.072,0.05L60.125,12.844z M52.068,11.566l0.071,0.05
				l0.155-0.225l-0.073-0.05L52.068,11.566z M52.856,12.292l0.071,0.049l0.221-0.326l-0.073-0.049L52.856,12.292z M52.428,11.982
				l0.228-0.345l0.075,0.051l-0.232,0.343L52.428,11.982z M51.617,11.301l0.07,0.048l0.257-0.379l-0.073-0.05L51.617,11.301z
				 M52.296,11.857l0.071,0.049l0.224-0.322l-0.074-0.05L52.296,11.857z M51.413,10.973l0.07,0.049l0.223-0.326l-0.072-0.049
				L51.413,10.973z M51.191,10.988l0.31-0.459l0.074,0.05l-0.313,0.458L51.191,10.988z M51.238,10.608l0.135-0.199l0.075,0.05
				l-0.139,0.198L51.238,10.608z M53.501,12.59l0.07,0.049l0.156-0.227l-0.074-0.05L53.501,12.59z M53.052,12.308l0.156-0.227
				l0.074,0.049l-0.154,0.227L53.052,12.308z M52.593,12.043l0.077,0.054l0.17-0.257l-0.074-0.051L52.593,12.043z M51.932,11.459
				l0.153-0.228l0.072,0.05l-0.155,0.228L51.932,11.459z M51.526,11.117l0.156-0.227l0.074,0.049l-0.159,0.227L51.526,11.117z
				 M51.089,10.518l0.071,0.05l0.154-0.229l-0.073-0.049L51.089,10.518z M53.808,12.76l0.07,0.049l0.129-0.183l-0.074-0.05
				L53.808,12.76z M53.226,12.372l0.07,0.05l0.113-0.167l-0.075-0.051L53.226,12.372z M53.671,12.652l0.108-0.165l0.073,0.049
				l-0.111,0.165L53.671,12.652z M54.21,13.104l0.08-0.118l0.073,0.05l-0.082,0.117L54.21,13.104z M54.079,12.99l0.071,0.049
				l0.109-0.162l-0.074-0.05L54.079,12.99z M53.938,12.88l0.123-0.178l0.073,0.049L54.01,12.93L53.938,12.88z M53.369,12.474
				l0.105-0.164l0.075,0.05l-0.109,0.161L53.369,12.474z M52.787,12.08l0.112-0.164l0.073,0.049l-0.114,0.165L52.787,12.08z
				 M52.226,11.653l0.105-0.163l0.073,0.05l-0.107,0.162L52.226,11.653z M51.727,11.45l0.108-0.163l0.073,0.05l-0.111,0.162
				L51.727,11.45z M51.907,11.181l0.107-0.161l0.074,0.049l-0.11,0.161L51.907,11.181z M50.991,10.341l0.105-0.163l0.075,0.05
				l-0.107,0.163L50.991,10.341z M60.564,12.819l-0.074-0.046l-0.559,0.823l0.074,0.049L60.564,12.819z M60.33,12.85l-0.074-0.048
				l-0.221,0.333l0.074,0.05L60.33,12.85z M60.051,13.267l-0.328,0.485l-0.074-0.049l0.33-0.484L60.051,13.267z M60.611,13.063
				l-0.326,0.488l-0.074-0.05l0.324-0.485L60.611,13.063z M62.303,8.522l0.111-0.159l0.07,0.052l-0.109,0.161L62.303,8.522z
				 M62.398,8.687l0.227-0.332l0.076,0.053l-0.227,0.327L62.398,8.687z M62.465,8.918l0.07,0.05l0.357-0.526l-0.074-0.049
				L62.465,8.918z M62.518,9.153l0.076,0.049l0.293-0.433l-0.074-0.053L62.518,9.153z M62.754,9.119l0.107-0.163l0.076,0.053
				l-0.109,0.158L62.754,9.119z M62.111,9.274l0.152-0.225l0.076,0.054l-0.152,0.221L62.111,9.274z M61.889,9.294l0.107-0.162
				l0.076,0.052l-0.107,0.159L61.889,9.294z M58.711,13.203l-0.076-0.046L58.201,13.8l0.074,0.049L58.711,13.203z M58.156,13.088
				l-0.076-0.047l-0.497,0.73l0.074,0.05L58.156,13.088z M58.479,12.919l-0.074-0.049l-0.559,0.825l0.074,0.049L58.479,12.919z
				 M58.742,13.475l-0.23,0.333l-0.07-0.05l0.225-0.332L58.742,13.475z M58.578,13.09l-0.23,0.333l-0.074-0.05l0.23-0.331
				L58.578,13.09z M57.705,13.438l-0.23,0.333l-0.074-0.05l0.23-0.331L57.705,13.438z M58.277,13.523l-0.139,0.203L58.07,13.68
				l0.135-0.208L58.277,13.523z M55.079,10.264l-0.076-0.048l-0.09,0.129l0.074,0.049L55.079,10.264z M53.409,10.526l-0.075-0.047
				l-0.136,0.196l0.074,0.051L53.409,10.526z M54.607,10.015l-0.071-0.047l-0.872,1.286l0.071,0.052L54.607,10.015z M54.242,10.243
				l-0.069-0.048l-0.657,0.966l0.071,0.053L54.242,10.243z M54.861,9.958l-0.072-0.053l-0.5,0.738l0.071,0.053L54.861,9.958z
				 M53.917,10.414l-0.073-0.049l-0.464,0.679l0.08,0.053L53.917,10.414z M54.23,10.892l-0.078-0.052l-0.346,0.508l0.08,0.053
				L54.23,10.892z M53.564,10.609l-0.215,0.318l-0.072-0.05l0.215-0.316L53.564,10.609z M54.956,10.129l-0.262,0.384l-0.073-0.049
				l0.261-0.386L54.956,10.129z M54.404,11.578L54.33,11.53l-0.137,0.197l0.074,0.049L54.404,11.578z M54.785,11.32l-0.074-0.048
				l-0.358,0.528l0.072,0.049L54.785,11.32z M57.365,12.063l-0.152,0.217l-0.074-0.048l0.152-0.216L57.365,12.063z M57.138,12.078
				l-0.152,0.217l-0.074-0.049l0.15-0.216L57.138,12.078z M56.431,12.183l-0.076-0.048l-0.1,0.142l0.074,0.05L56.431,12.183z
				 M55.829,12.758l-0.076-0.047l-0.1,0.146l0.073,0.051L55.829,12.758z M55.155,12.505l-0.102,0.145L54.981,12.6l0.099-0.143
				L55.155,12.505z M55.853,12.097l-0.075-0.048l-0.539,0.794l0.074,0.049L55.853,12.097z M55.688,12.021l-0.539,0.795l-0.075-0.05
				l0.54-0.793L55.688,12.021z M57.046,12.527l-0.686,1.007l-0.074-0.048l0.686-1.007L57.046,12.527z M56.808,12.566l-0.076-0.047
				l-0.764,1.123l0.073,0.05L56.808,12.566z M56.914,12.097l-0.076-0.048l-0.416,0.609l0.074,0.05L56.914,12.097z M57.263,12.52
				l-0.502,0.735l-0.074-0.05l0.502-0.732L57.263,12.52z M56.408,12.84l-0.374,0.552l-0.073-0.05l0.373-0.549L56.408,12.84z
				 M56.615,12.223l-0.375,0.552l-0.075-0.05l0.375-0.549L56.615,12.223z M57.431,12.576l-0.076-0.047l-0.293,0.438l0.074,0.05
				L57.431,12.576z M56.289,12.39l-0.076-0.047l-0.294,0.438l0.073,0.049L56.289,12.39z M55.801,12.48l-0.296,0.443l-0.074-0.05
				l0.294-0.439L55.801,12.48z M55.407,12.129l-0.228,0.333l-0.073-0.049l0.225-0.332L55.407,12.129z M55.157,12.171l-0.075-0.047
				l-0.203,0.304l0.074,0.048L55.157,12.171z M58.07,12.583l-0.075-0.047L57.8,12.821l0.074,0.049L58.07,12.583z M58.262,12.613
				l-0.139,0.204l-0.074-0.05l0.139-0.2L58.262,12.613z M57.8,12.67l-0.076-0.048l-0.146,0.217l0.074,0.05L57.8,12.67z
				 M57.646,12.583l-0.207,0.305l-0.074-0.049l0.207-0.305L57.646,12.583z M54.813,11.896l-0.075-0.048l-0.145,0.22l0.067,0.049
				L54.813,11.896z M56.116,12.331l-0.152,0.22l-0.066-0.049l0.145-0.218L56.116,12.331z M54.999,12.1l-0.151,0.22l-0.074-0.05
				l0.151-0.218L54.999,12.1z M54.771,11.657l-0.219,0.32l-0.073-0.05l0.217-0.316L54.771,11.657z M54.312,11.395l-0.218,0.318
				l-0.074-0.049l0.217-0.316L54.312,11.395z M52.703,9.385l0.073,0.046l0.136-0.197l-0.073-0.048L52.703,9.385z M52.486,9.395
				l0.166-0.247l0.073,0.049l-0.165,0.245L52.486,9.395z M52.256,9.414l0.075,0.046l0.232-0.344L52.49,9.068L52.256,9.414z
				 M51.706,9.597l0.074,0.046l0.305-0.444L52.012,9.15L51.706,9.597z M51.554,9.504l0.251-0.368l0.073,0.05l-0.249,0.365
				L51.554,9.504z M51.402,9.412l0.074,0.047l0.25-0.365l-0.074-0.049L51.402,9.412z M51.123,8.895l0.075,0.047l0.328-0.485
				l-0.075-0.05L51.123,8.895z M51.364,8.846l0.073,0.051l0.387-0.574l-0.073-0.049L51.364,8.846z M52.035,9.417l0.291-0.43
				l0.08,0.053l-0.293,0.43L52.035,9.417z M51.828,8.777l0.079,0.053l0.149-0.217L51.978,8.56L51.828,8.777z M51.261,9.32
				l0.152-0.229l0.074,0.05l-0.156,0.228L51.261,9.32z M51.042,8.704l0.2-0.3l0.072,0.05l-0.201,0.3L51.042,8.704z M51.584,8.84
				l0.31-0.459l0.074,0.051l-0.313,0.457L51.584,8.84z M54.364,9.752l-0.09,0.132L54.2,9.834l0.09-0.13L54.364,9.752z M54.145,9.752
				l-0.075-0.048l-0.136,0.197l0.074,0.051L54.145,9.752z M53.138,10.308l-0.136,0.199l-0.073-0.049l0.136-0.197L53.138,10.308z
				 M52.273,9.706l-0.074-0.048l-0.135,0.198l0.072,0.049L52.273,9.706z M52.466,9.73L52.3,9.976l-0.074-0.049l0.166-0.244
				L52.466,9.73z M52.694,9.711L52.62,9.665l-0.232,0.344l0.073,0.049L52.694,9.711z M53.612,9.6l-0.357,0.527l-0.07-0.048
				l0.355-0.527L53.612,9.6z M53.381,9.634L53.31,9.582l-0.498,0.73l0.075,0.05L53.381,9.634z M53.193,9.597l-0.071-0.051
				l-0.429,0.636l0.071,0.051L53.193,9.597z M53.79,9.652l-0.074-0.049l-0.292,0.431l0.074,0.049L53.79,9.652z M54.006,9.647
				l-0.292,0.431l-0.073-0.05l0.292-0.43L54.006,9.647z M52.911,9.702l-0.294,0.432l-0.072-0.049l0.293-0.431L52.911,9.702z
				 M52.696,13.652l0.07,0.05l0.222-0.325l-0.073-0.05L52.696,13.652z M51.729,13.822l0.071,0.049l0.5-0.725l-0.074-0.05
				L51.729,13.822z M52.059,13.649l0.3-0.441l0.074,0.05l-0.302,0.439L52.059,13.649z M52.199,13.751l0.072,0.05l0.303-0.439
				l-0.074-0.05L52.199,13.751z M51.045,12.641l0.071,0.049l0.287-0.421l-0.073-0.049L51.045,12.641z M51.175,12.764l0.285-0.422
				l0.072,0.05l-0.286,0.421L51.175,12.764z M51.3,12.885l0.07,0.05l0.329-0.478l-0.074-0.049L51.3,12.885z M51.301,13.196
				l0.07,0.05l0.333-0.483l-0.074-0.049L51.301,13.196z M51.49,13.233l0.072,0.049l0.328-0.483l-0.075-0.05L51.49,13.233z
				 M51.502,13.527l0.405-0.601l0.079,0.054l-0.406,0.597L51.502,13.527z M52.486,13.641l0.332-0.489l0.071,0.051l-0.332,0.487
				L52.486,13.641z M51.488,13.868l0.171-0.248l0.072,0.048l-0.173,0.249L51.488,13.868z M51.075,12.281l0.119-0.182l0.074,0.049
				l-0.121,0.182L51.075,12.281z M52.915,13.639l0.122-0.178l0.075,0.049l-0.126,0.179L52.915,13.639z M56.083,8.626l0.066,0.048
				l0.36-0.526l-0.072-0.05L56.083,8.626z M56.406,8.46l0.109-0.16l0.072,0.051l-0.109,0.157L56.406,8.46z M55.979,8.461
				l0.277-0.415L56.33,8.1l-0.275,0.412L55.979,8.461z M54.987,7.729l0.071,0.054l0.161-0.239l-0.074-0.05L54.987,7.729z
				 M55.28,7.924l0.069,0.055l0.251-0.373l-0.073-0.051L55.28,7.924z M55.137,7.829l0.207-0.313l0.072,0.05l-0.211,0.312
				L55.137,7.829z M56.259,7.265l0.07,0.051l0.357-0.526l-0.072-0.051L56.259,7.265z M56.562,7.448l0.357-0.527l0.072,0.05
				l-0.357,0.526L56.562,7.448z M56.14,7.133l0.073,0.048l0.355-0.525l-0.074-0.051L56.14,7.133z M55.474,6.855l0.075,0.046
				l0.36-0.532l-0.073-0.05L55.474,6.855z M55.655,6.899l0.073,0.051l0.362-0.537l-0.073-0.051L55.655,6.899z M56.691,7.571
				l0.199-0.297l0.07,0.052l-0.195,0.298L56.691,7.571z M56.773,7.763l0.141-0.215l0.072,0.053l-0.145,0.213L56.773,7.763z
				 M56.863,7.947l0.076-0.118l0.068,0.047L56.935,8L56.863,7.947z M56.496,7.232l0.068,0.051l0.27-0.392l-0.074-0.05L56.496,7.232z
				 M56.238,6.664l0.078,0.055l0.139-0.208l-0.078-0.053L56.238,6.664z M55.971,7.054l0.08,0.054l0.203-0.296l-0.08-0.054
				L55.971,7.054z M55.427,6.616l0.198-0.299L55.7,6.366l-0.202,0.299L55.427,6.616z M56.065,6.291l0.076,0.047l0.202-0.295
				l-0.074-0.049L56.065,6.291z M55.849,6.929l0.59-0.873l0.074,0.05l-0.594,0.872L55.849,6.929z M56.433,10.465l-0.01-0.012
				L56.433,10.465z"/>
			<path fill="#1F181C" d="M60.223,18.284l-0.031-3.799l-0.273,0.019l-0.158-0.102c-1.232-0.229-2.729,0.399-2.729,0.399
				c-1.531-0.659-2.601-0.428-2.601-0.428l-0.17,0.144l-0.302-0.029l0.047,3.781l3.026,0.315l0.234,0.022L60.223,18.284z"/>
			<path fill="#EAEBEC" d="M60.053,18.05v-3.358l-0.271-0.202l0.008,3.414L60.053,18.05z M56.908,18.419l0.123-0.091
				c-1.461-0.641-2.453-0.433-2.453-0.433l-0.294,0.232L56.908,18.419z M54.152,14.702l0.277-0.219l0.077,3.367l-0.309,0.239
				L54.152,14.702z M59.75,17.988l0.271,0.155l-2.633,0.275l-0.008,0.001l-0.141-0.1C58.713,17.743,59.75,17.988,59.75,17.988"/>
			<path fill="#FFFFFF" d="M56.988,14.875l0.068,3.358c-1.12-0.44-2.032-0.524-2.465-0.449l-0.014-0.022l-0.079-3.312
				C55.336,14.307,56.148,14.541,56.988,14.875 M57.121,14.873l0.053,3.386c0.098-0.042,1.278-0.557,2.52-0.367
				c0.002,0-0.02-3.151-0.023-3.435C59.225,14.426,58.197,14.392,57.121,14.873"/>
			<path fill="#1F181C" d="M56.681,16.299l0.148,0.04v0.039l-0.148-0.04V16.299z M56.681,16.457l0.148,0.041v0.039l-0.148-0.041
				V16.457z"/>
			<path fill="#1F181C" d="M55.13,14.746h0.18l0.403,0.493v-0.379c0-0.04-0.005-0.065-0.013-0.076
				c-0.013-0.013-0.032-0.02-0.058-0.02H55.62v-0.019h0.229v0.019h-0.023c-0.028,0-0.047,0.008-0.06,0.025
				c-0.007,0.009-0.011,0.033-0.011,0.07v0.554h-0.018l-0.435-0.529v0.406c0,0.039,0.004,0.064,0.013,0.074
				c0.013,0.014,0.031,0.021,0.057,0.021h0.023v0.017h-0.229v-0.017h0.022c0.028,0,0.047-0.01,0.06-0.025
				c0.008-0.01,0.011-0.035,0.011-0.07v-0.458c-0.019-0.023-0.034-0.038-0.043-0.044c-0.011-0.007-0.025-0.014-0.045-0.02
				c-0.009-0.003-0.023-0.004-0.043-0.004V14.746z M55.118,15.385v0.017h-0.282v-0.017h0.024c0.027,0,0.047-0.009,0.058-0.024
				c0.009-0.01,0.014-0.036,0.014-0.074v-0.425c0-0.033-0.003-0.055-0.007-0.066c-0.003-0.007-0.011-0.015-0.021-0.021
				c-0.015-0.009-0.029-0.011-0.044-0.011h-0.024v-0.019h0.282v0.019h-0.022c-0.027,0-0.046,0.007-0.06,0.023
				c-0.008,0.011-0.013,0.035-0.013,0.074v0.425c0,0.033,0.003,0.055,0.008,0.065c0.003,0.009,0.01,0.015,0.02,0.021
				c0.014,0.008,0.028,0.012,0.045,0.012H55.118z"/>
			<path fill="#1F181C" d="M55.884,16.376v0.019l-0.228-0.056v-0.017l0.02,0.005c0.021,0.006,0.037,0.001,0.046-0.011
				c0.007-0.009,0.011-0.032,0.011-0.07v-0.403c0-0.032-0.002-0.054-0.005-0.065c-0.003-0.008-0.009-0.016-0.017-0.023
				c-0.011-0.01-0.023-0.017-0.035-0.021l-0.02-0.003v-0.019l0.228,0.055v0.017l-0.019-0.004c-0.022-0.005-0.038-0.001-0.047,0.011
				c-0.008,0.008-0.012,0.032-0.012,0.068v0.406c0,0.032,0.002,0.053,0.005,0.063c0.004,0.009,0.01,0.016,0.018,0.023
				c0.012,0.011,0.023,0.018,0.036,0.021L55.884,16.376z"/>
			<path fill="#1F181C" d="M55.329,16.126v0.083c-0.001,0.041,0,0.059,0.007,0.072c0,0.001,0.047,0.022,0.057,0.029l0.004,0.002
				v0.017l-0.219-0.017v-0.019c0.016-0.003,0.03-0.011,0.044-0.028c0.007-0.01,0.009-0.033,0.009-0.071v-0.424
				c0-0.042-0.005-0.067-0.013-0.078c-0.011-0.016-0.03-0.026-0.054-0.028l-0.022-0.002v-0.018l0.229,0.028
				c0.056,0.007,0.1,0.017,0.132,0.034c0.033,0.016,0.061,0.041,0.083,0.072c0.022,0.03,0.039,0.063,0.038,0.104
				c-0.006,0.059-0.007,0.135-0.041,0.165s-0.063,0.066-0.096,0.072C55.414,16.131,55.381,16.13,55.329,16.126 M55.333,16.047
				c0.071,0.023,0.115,0.015,0.155-0.024c0.024-0.023,0.024-0.1,0.024-0.143c0-0.027-0.005-0.055-0.016-0.081
				c-0.011-0.025-0.027-0.045-0.048-0.06s-0.043-0.023-0.069-0.028c-0.015-0.001-0.021-0.001-0.044,0.002L55.333,16.047z"/>
			<path fill="#1F181C" d="M55.081,15.639v0.224l-0.016-0.001c-0.004-0.044-0.012-0.078-0.025-0.104
				c-0.012-0.028-0.029-0.049-0.053-0.067c-0.023-0.016-0.048-0.025-0.071-0.027c-0.028-0.002-0.026,0.005-0.044,0.023
				c-0.019,0.018-0.021,0.04-0.021,0.067c0,0.02,0.007,0.027,0.018,0.044c0.018,0.024,0.058,0.05,0.119,0.095
				c0.052,0.037,0.076,0.081,0.094,0.099c0.065,0.066,0.04,0.216-0.011,0.269c-0.032,0.032-0.075,0.046-0.125,0.042
				c-0.015-0.001-0.029-0.004-0.044-0.007c-0.009-0.004-0.026-0.01-0.053-0.022c-0.025-0.012-0.043-0.02-0.05-0.02
				c-0.006-0.001-0.012,0.001-0.016,0.005c-0.004,0.005-0.007,0.015-0.009,0.029l-0.015-0.001v-0.221l0.015,0.001
				c0.008,0.046,0.017,0.083,0.029,0.106c0.011,0.023,0.029,0.044,0.054,0.062c0.023,0.017,0.044,0.02,0.073,0.022
				c0.097,0.009,0.087-0.069,0.063-0.14c-0.001-0.004-0.094-0.11-0.094-0.11c-0.047-0.035-0.067-0.059-0.087-0.078
				s-0.032-0.05-0.043-0.073c-0.011-0.021-0.017-0.048-0.017-0.074c0-0.046,0.016-0.085,0.045-0.116
				c0.03-0.031,0.069-0.044,0.115-0.041c0.029,0.002,0.061,0.014,0.093,0.034c0.015,0.009,0.025,0.014,0.032,0.014
				s0.013-0.001,0.017-0.006c0.005-0.003,0.008-0.013,0.01-0.028L55.081,15.639z"/>
			<path fill="#1F181C" d="M56.281,16.697v0.222l-0.016-0.004c-0.004-0.042-0.014-0.078-0.027-0.106
				c-0.011-0.027-0.03-0.051-0.054-0.069c-0.024-0.019-0.05-0.031-0.075-0.036c-0.028-0.005-0.052,0.002-0.071,0.019
				c-0.018,0.017-0.027,0.038-0.027,0.063c0,0.02,0.005,0.038,0.018,0.057c0.018,0.025,0.059,0.064,0.122,0.115
				c0.053,0.042,0.088,0.073,0.108,0.093c0.02,0.021,0.035,0.044,0.047,0.068c0.01,0.026,0.014,0.051,0.014,0.077
				c0,0.047-0.018,0.086-0.049,0.117c-0.033,0.029-0.076,0.039-0.127,0.03c-0.018-0.002-0.033-0.007-0.048-0.013
				c-0.008-0.001-0.026-0.011-0.053-0.026c-0.028-0.015-0.045-0.022-0.052-0.023c-0.007-0.001-0.012,0-0.017,0.003
				c-0.005,0.005-0.007,0.014-0.01,0.028l-0.016-0.002V17.09l0.016,0.003c0.008,0.046,0.018,0.083,0.03,0.107
				c0.012,0.025,0.03,0.047,0.057,0.068c0.024,0.018,0.053,0.03,0.083,0.035c0.032,0.006,0.061,0.001,0.081-0.016
				c0.022-0.019,0.032-0.042,0.032-0.07c0-0.016-0.006-0.033-0.013-0.049c-0.007-0.018-0.02-0.035-0.036-0.051
				c-0.01-0.012-0.04-0.038-0.088-0.075c-0.048-0.041-0.082-0.071-0.104-0.092c-0.02-0.022-0.035-0.045-0.046-0.069
				c-0.012-0.023-0.017-0.049-0.017-0.076c0-0.045,0.016-0.083,0.047-0.11c0.031-0.028,0.071-0.039,0.119-0.029
				c0.03,0.004,0.063,0.019,0.095,0.041c0.017,0.011,0.025,0.017,0.033,0.017c0.008,0.002,0.016,0,0.02-0.004
				c0.004-0.003,0.008-0.013,0.01-0.027L56.281,16.697z"/>
			<path fill="#1F181C" d="M55.69,16.652v-0.019l0.167,0.024v0.017l-0.018-0.002c-0.019-0.002-0.033,0.006-0.043,0.026
				c-0.004,0.008-0.008,0.03-0.008,0.066v0.255c0,0.062-0.004,0.111-0.013,0.145c-0.01,0.033-0.029,0.06-0.056,0.082
				c-0.027,0.021-0.066,0.027-0.112,0.021c-0.052-0.007-0.092-0.026-0.118-0.053c-0.026-0.028-0.045-0.062-0.057-0.104
				c-0.007-0.029-0.011-0.082-0.011-0.159v-0.245c0-0.038-0.004-0.064-0.012-0.077c-0.008-0.014-0.021-0.022-0.039-0.024
				l-0.018-0.003v-0.016l0.203,0.029v0.018L55.54,16.63c-0.02-0.003-0.033,0.003-0.043,0.018c-0.005,0.01-0.007,0.033-0.007,0.068
				v0.274c0,0.024,0.001,0.053,0.005,0.085c0.002,0.032,0.009,0.058,0.018,0.076c0.009,0.02,0.022,0.034,0.038,0.049
				c0.017,0.015,0.037,0.023,0.062,0.027c0.03,0.003,0.059-0.001,0.082-0.015c0.024-0.015,0.041-0.036,0.05-0.063
				c0.009-0.026,0.014-0.072,0.014-0.139v-0.256c0-0.038-0.003-0.063-0.01-0.075c-0.008-0.015-0.021-0.024-0.04-0.027L55.69,16.652z
				"/>
			<path fill="#1F181C" d="M55.286,16.535l0.008,0.155h-0.019c-0.004-0.028-0.009-0.047-0.016-0.059
				c-0.01-0.018-0.023-0.031-0.039-0.041c-0.018-0.009-0.039-0.012-0.066-0.012h-0.093v0.501c0,0.04,0.004,0.066,0.013,0.074
				c0.012,0.015,0.031,0.021,0.057,0.021h0.023v0.018h-0.28v-0.018h0.023c0.028,0,0.047-0.009,0.06-0.024
				c0.007-0.011,0.011-0.034,0.011-0.071v-0.501h-0.08c-0.029,0-0.053,0.001-0.064,0.006c-0.018,0.006-0.032,0.017-0.044,0.036
				c-0.012,0.017-0.019,0.04-0.021,0.07H54.74l0.007-0.155H55.286z"/>
			<path fill="#1F181C" d="M56.423,16.5l-0.178-0.041l-0.05-0.217l-0.044-0.002c-0.014-0.002-0.024-0.004-0.033-0.005
				c-0.004,0-0.008-0.001-0.013-0.002c-0.003,0-0.008-0.001-0.013-0.001v0.095c0,0.042,0.005,0.067,0.012,0.077
				c0.011,0.016,0.026,0.026,0.047,0.029l0.021,0.002v0.019l-0.238-0.036V16.4l0.021,0.002c0.023,0.005,0.041-0.001,0.051-0.019
				c0.005-0.008,0.009-0.031,0.009-0.068V15.9c0-0.041-0.004-0.066-0.011-0.077c-0.012-0.016-0.028-0.024-0.049-0.027l-0.021-0.004
				v-0.018l0.203,0.03c0.059,0.009,0.102,0.021,0.131,0.034c0.027,0.015,0.053,0.037,0.07,0.066c0.02,0.029,0.029,0.062,0.029,0.1
				c0,0.039,0.012,0.108-0.012,0.134c-0.021,0.026-0.078,0.095-0.124,0.1l0.081,0.053c0.041,0.028,0.045,0.155,0.064,0.172
				c0.02,0.016,0.014,0.01,0.045,0.018V16.5z M56.093,16.201c0.006,0.001,0.01,0.001,0.013,0.002c0.006,0,0.008,0.001,0.01,0.001
				c0.054,0.009,0.094,0,0.121-0.022c0.027-0.023,0.041-0.144,0.041-0.187c0-0.04-0.012-0.073-0.031-0.101
				c-0.023-0.029-0.051-0.045-0.088-0.051c-0.015-0.002-0.038-0.002-0.064-0.001V16.201z"/>
			<path fill="#1F181C" d="M56.642,16.542v0.017l-0.229-0.054v-0.017l0.02,0.005c0.023,0.003,0.039,0,0.049-0.011
				c0.006-0.008,0.008-0.03,0.008-0.068v-0.395c0-0.032-0.002-0.052-0.004-0.063c-0.004-0.007-0.008-0.016-0.016-0.023
				c-0.012-0.01-0.023-0.016-0.037-0.02l-0.02-0.004v-0.017l0.229,0.055v0.016l-0.018-0.005c-0.023-0.005-0.039-0.001-0.049,0.011
				c-0.006,0.008-0.01,0.03-0.01,0.067v0.396c0,0.03,0.002,0.052,0.006,0.062c0.002,0.009,0.008,0.016,0.014,0.024
				c0.014,0.01,0.025,0.016,0.039,0.02L56.642,16.542z"/>
			<path fill="#1F181C" d="M58.574,15.67c0.074-0.016,0.141,0.001,0.199,0.055c0.061,0.054,0.094,0.128,0.1,0.224
				c0.01,0.1-0.012,0.189-0.063,0.267c-0.049,0.077-0.111,0.125-0.189,0.143c-0.078,0.017-0.145-0.001-0.205-0.054
				c-0.057-0.054-0.092-0.129-0.098-0.232c-0.01-0.105,0.016-0.196,0.07-0.274C58.438,15.729,58.5,15.688,58.574,15.67
				 M58.568,15.708c-0.051,0.011-0.09,0.042-0.117,0.093c-0.033,0.061-0.045,0.145-0.039,0.25c0.01,0.107,0.035,0.185,0.08,0.234
				c0.035,0.038,0.076,0.05,0.125,0.041c0.055-0.012,0.096-0.046,0.127-0.102c0.031-0.056,0.043-0.137,0.035-0.24
				c-0.01-0.112-0.035-0.191-0.078-0.238C58.668,15.708,58.623,15.696,58.568,15.708"/>
			<path fill="#1F181C" d="M58.246,16.398v0.019l-0.28,0.054v-0.019l0.023-0.005c0.028-0.006,0.045-0.016,0.057-0.034
				c0.008-0.012,0.014-0.038,0.014-0.078v-0.425c0-0.033-0.004-0.053-0.008-0.063c-0.002-0.007-0.01-0.013-0.02-0.017
				c-0.014-0.005-0.029-0.006-0.043-0.004l-0.023,0.005v-0.018l0.28-0.055v0.02l-0.023,0.004c-0.027,0.006-0.047,0.017-0.059,0.035
				c-0.008,0.012-0.012,0.038-0.012,0.077v0.426c0,0.033,0.002,0.054,0.006,0.062c0.002,0.009,0.01,0.015,0.02,0.019
				c0.014,0.005,0.029,0.006,0.045,0.002L58.246,16.398z"/>
			<path fill="#1F181C" d="M57.804,15.827l0.016,0.204l-0.016,0.004c-0.014-0.049-0.033-0.07-0.057-0.09
				c-0.088-0.083-0.199-0.004-0.246,0.09c-0.029,0.062-0.045,0.133-0.045,0.209c0,0.063,0.01,0.118,0.029,0.165
				c0.02,0.048,0.047,0.081,0.08,0.097c0.033,0.017,0.068,0.021,0.104,0.013c0.02-0.005,0.041-0.013,0.059-0.023
				c0.02-0.011,0.037-0.024,0.055-0.039v-0.129c0-0.033-0.002-0.055-0.006-0.063c-0.006-0.008-0.01-0.015-0.02-0.02
				c-0.01-0.003-0.023-0.002-0.047,0.004v-0.019l0.215-0.05v0.02l-0.012,0.002c-0.02,0.005-0.035,0.016-0.043,0.034
				c-0.006,0.013-0.008,0.038-0.008,0.073v0.14c-0.031,0.025-0.063,0.049-0.094,0.064c-0.031,0.016-0.064,0.029-0.102,0.038
				c-0.107,0.023-0.188,0.001-0.244-0.068c-0.041-0.051-0.061-0.117-0.061-0.196c0-0.058,0.01-0.116,0.033-0.175
				c0.027-0.069,0.066-0.125,0.115-0.17c0.039-0.037,0.088-0.063,0.143-0.075c0.043-0.009,0.051-0.001,0.084,0.006
				c0.016,0.003,0.027,0.005,0.031,0.003c0.006-0.001,0.012-0.005,0.014-0.011c0.004-0.007,0.006-0.02,0.008-0.035L57.804,15.827z"
				/>
			<path fill="#1F181C" d="M59.412,15.329v0.019l-0.26,0.011v-0.025c0.047-0.032,0.063-0.022,0.063-0.1v-0.425
				c0-0.034-0.002-0.055-0.006-0.066c-0.004-0.007-0.012-0.015-0.021-0.021c-0.016-0.006-0.031-0.01-0.047-0.01l-0.025,0.001v-0.019
				l0.297-0.003v0.018l-0.027,0c-0.025,0.001-0.047,0.009-0.061,0.024c-0.008,0.01-0.012,0.036-0.012,0.074v0.425
				c0,0.033,0.002,0.056,0.008,0.066c0.002,0.009,0.01,0.015,0.02,0.021c0.014,0.007,0.029,0.012,0.045,0.012L59.412,15.329z"/>
			<path fill="#1F181C" d="M58.717,15.077l-0.137-0.168l-0.063,0.359c-0.006,0.042-0.016,0.079-0.01,0.09
				c0.01,0.012,0.043,0.012,0.043,0.014l0.008,0.033l-0.146,0.023v-0.056l0.018-0.001c0.021-0.001,0.027-0.007,0.031-0.029
				l0.07-0.458c0.014-0.103-0.008-0.088-0.074-0.126c-0.01-0.005-0.025-0.007-0.045-0.006v-0.018l0.182-0.01l0.139,0.2l0.129-0.227
				l0.221-0.01v0.017l-0.018,0.001c-0.023,0.001-0.115,0.004-0.125,0.022c-0.004,0.01-0.018,0.043-0.008,0.079l0.109,0.441
				c0.014,0.051,0.061,0.076,0.064,0.08v0.027l-0.236,0.016l0.002-0.029l0.008-0.001c0.023-0.003,0.037-0.011,0.047-0.029
				c0.006-0.01,0.02-0.036,0.008-0.071l-0.109-0.336L58.717,15.077z"/>
			<path fill="#1F181C" d="M58.061,14.862v0.27l0.123-0.022c0.031-0.007,0.051-0.017,0.063-0.03
				c0.014-0.018,0.023-0.046,0.023-0.085l0.016-0.003v0.238L58.27,15.23c-0.004-0.032-0.008-0.053-0.012-0.061
				c-0.004-0.01-0.012-0.019-0.023-0.023s-0.027-0.005-0.051,0l-0.123,0.022v0.225c0,0.03,0.002,0.05,0.004,0.055
				c0.002,0.006,0.006,0.01,0.012,0.014c0.004,0.002,0.016,0.002,0.029,0l0.096-0.017c0.031-0.006,0.053-0.014,0.068-0.022
				c0.016-0.007,0.027-0.02,0.041-0.038c0.016-0.024,0.033-0.059,0.051-0.104l0.018-0.002l-0.049,0.18l-0.426,0.078v-0.018
				l0.02-0.004c0.014-0.002,0.025-0.008,0.037-0.018c0.008-0.007,0.014-0.016,0.018-0.027c0.002-0.011,0.004-0.034,0.004-0.067
				v-0.443c0-0.042-0.004-0.069-0.01-0.077c-0.01-0.013-0.027-0.016-0.049-0.012l-0.02,0.003v-0.018l0.426-0.081l0.006,0.149
				l-0.016,0.003c-0.006-0.035-0.014-0.059-0.02-0.07c-0.006-0.013-0.016-0.021-0.031-0.025c-0.01-0.002-0.029-0.002-0.057,0.003
				L58.061,14.862z"/>
			<path fill="#1F181C" d="M57.919,15.545l-0.166,0.051l-0.213-0.242c-0.014,0.004-0.025,0.009-0.035,0.013
				c-0.004,0.001-0.01,0.002-0.014,0.003c-0.004,0-0.01,0.002-0.014,0.003v0.19c0,0.042,0.004,0.066,0.012,0.073
				c0.012,0.011,0.029,0.012,0.051,0.006l0.025-0.008v0.018L57.3,15.735v-0.017l0.023-0.007c0.027-0.009,0.045-0.023,0.057-0.045
				c0.006-0.012,0.01-0.037,0.01-0.074v-0.424c0-0.041-0.006-0.065-0.014-0.073c-0.012-0.01-0.029-0.012-0.053-0.004L57.3,15.096
				v-0.019l0.227-0.068c0.066-0.021,0.115-0.031,0.146-0.031c0.031,0,0.057,0.011,0.08,0.032c0.021,0.021,0.033,0.049,0.033,0.086
				c0,0.042-0.014,0.081-0.039,0.117c-0.023,0.038-0.063,0.071-0.115,0.099l0.129,0.148c0.029,0.034,0.055,0.056,0.076,0.063
				s0.047,0.009,0.082,0.001V15.545z M57.478,15.344c0.006-0.002,0.01-0.003,0.016-0.005c0.002-0.001,0.008-0.002,0.008-0.002
				c0.061-0.02,0.105-0.045,0.135-0.082c0.031-0.037,0.047-0.076,0.047-0.12c0-0.041-0.012-0.069-0.037-0.086
				c-0.023-0.019-0.057-0.022-0.096-0.01c-0.018,0.005-0.043,0.016-0.072,0.031V15.344z"/>
			<path fill="#1F181C" d="M59.375,15.185l0.148,0.009v0.039l-0.148-0.007V15.185z M59.375,15.082l0.148,0.007v0.039l-0.148-0.007
				V15.082z"/>
			<path fill="#1F181C" d="M58.227,17.319l0.002,0.017l-0.26,0.033l-0.002-0.019l0.023-0.002c0.024-0.002,0.042-0.013,0.051-0.03
				c0.008-0.011,0.01-0.037,0.008-0.077l-0.029-0.423c-0.002-0.033-0.006-0.055-0.01-0.066c-0.004-0.007-0.01-0.014-0.02-0.019
				c-0.014-0.006-0.027-0.008-0.043-0.006l-0.02,0.002l-0.002-0.019l0.26-0.032v0.019l-0.021,0.002
				c-0.025,0.002-0.041,0.013-0.051,0.03c-0.008,0.011-0.01,0.037-0.008,0.076l0.027,0.424c0.002,0.034,0.006,0.055,0.01,0.065
				c0.004,0.008,0.012,0.015,0.021,0.018c0.014,0.007,0.027,0.009,0.041,0.007L58.227,17.319z"/>
			<path fill="#1F181C" d="M57.929,16.729v0.019c-0.018,0.008-0.033,0.021-0.043,0.033c-0.016,0.021-0.029,0.049-0.039,0.084
				l-0.174,0.663l-0.014,0.002l-0.236-0.561c-0.01-0.027-0.018-0.042-0.021-0.046c-0.008-0.009-0.016-0.015-0.027-0.017
				c-0.01-0.004-0.023-0.004-0.039-0.001v-0.018l0.266-0.072v0.018c-0.027,0.01-0.045,0.02-0.053,0.029
				c-0.006,0.008-0.01,0.021-0.01,0.032c0,0.015,0.006,0.039,0.018,0.069l0.141,0.298l0.1-0.353c0.014-0.042,0.02-0.069,0.02-0.084
				c0-0.01-0.004-0.016-0.01-0.023c-0.01-0.006-0.023-0.01-0.043-0.007h-0.006v-0.018L57.929,16.729z"/>
			<path fill="#1F181C" d="M58.834,16.593l0.008,0.153l-0.02,0.001c-0.004-0.027-0.008-0.046-0.016-0.056
				c-0.01-0.017-0.021-0.031-0.041-0.037c-0.016-0.009-0.039-0.01-0.066-0.006l-0.094,0.01v0.502c0,0.041,0.004,0.065,0.012,0.073
				c0.014,0.014,0.033,0.017,0.059,0.015l0.023-0.002v0.017l-0.285,0.032v-0.017l0.023-0.002c0.029-0.003,0.049-0.015,0.063-0.033
				c0.006-0.01,0.01-0.034,0.01-0.071v-0.502l-0.082,0.01c-0.029,0.002-0.053,0.008-0.066,0.013
				c-0.016,0.007-0.031,0.022-0.045,0.041c-0.01,0.02-0.018,0.044-0.02,0.074l-0.02,0.001l0.008-0.155L58.834,16.593z"/>
			<path fill="#1F181C" d="M59.182,17.051l-0.121-0.345l-0.117,0.341L59.182,17.051z M59.195,17.089l-0.264-0.002l-0.033,0.062
				c-0.01,0.028-0.016,0.049-0.016,0.063c0,0.011,0.006,0.02,0.014,0.028c0.01,0.009,0.029,0.014,0.059,0.015v0.02l-0.193,0.005
				V17.26c0.025-0.006,0.043-0.014,0.051-0.023c0.014-0.016,0.031-0.052,0.051-0.102l0.213-0.592l0.016-0.001l0.215,0.583
				c0.016,0.048,0.031,0.078,0.045,0.092c0.014,0.013,0.035,0.021,0.059,0.022v0.02l-0.24,0.008v-0.02
				c0.023-0.002,0.041-0.007,0.051-0.016c0.008-0.009,0.012-0.019,0.012-0.031c0-0.016-0.008-0.038-0.02-0.072L59.195,17.089z"/>
			<path fill="#1F181C" d="M51.169,7.721C50.76,8.785,50.53,9.975,50.53,11.23c0,4.501,2.947,8.169,6.557,8.169v0.08
				c-3.657,0-6.634-3.704-6.634-8.247c0-1.254,0.227-2.445,0.633-3.511H51.169z"/>
			<path fill="#1F181C" d="M63.26,8.195c0.301,0.94,0.467,1.965,0.467,3.037c0,4.543-2.98,8.247-6.639,8.247v-0.082
				c3.616,0,6.559-3.666,6.559-8.168c0-1.071-0.166-2.096-0.469-3.034H63.26z"/>
			<path fill="#1F181C" d="M57.087,21.807c-4.864-0.002-8.83-4.749-8.83-10.575c0-5.823,3.966-10.573,8.83-10.573V0.572
				c-4.909,0-8.911,4.786-8.911,10.66s4.002,10.662,8.911,10.662V21.807z"/>
			<path fill="#1F181C" d="M57.087,0.659c4.864,0,8.829,4.75,8.829,10.572c0,5.828-3.965,10.576-8.829,10.576v0.087
				c4.911,0,8.915-4.786,8.915-10.663c0-5.873-4.004-10.659-8.915-10.659V0.659z"/>
			<path fill="#1E181B" d="M50.473,7.405l-0.089-0.032L50.352,7.46c-0.013,0.037-0.029,0.044-0.06,0.034l-0.243-0.088l0.026-0.071
				c0.05-0.14,0.108-0.168,0.3-0.099c0.099,0.035,0.179,0.022,0.22-0.097c0.036-0.1,0.005-0.185-0.148-0.241l-0.038-0.014
				l-0.029,0.08l0.038,0.014c0.07,0.025,0.093,0.045,0.081,0.075c-0.007,0.021-0.037,0.042-0.164-0.004
				c-0.094-0.034-0.159-0.023-0.222,0.096h-0.003c0.034-0.125,0.011-0.251-0.113-0.296c-0.132-0.047-0.229,0.01-0.292,0.184
				l-0.188,0.522l0.089,0.032l0.029-0.084c0.015-0.037,0.03-0.045,0.062-0.033l0.534,0.19c0.031,0.011,0.039,0.027,0.026,0.064
				l-0.03,0.084l0.088,0.032L50.473,7.405z M49.712,7.287l0.055-0.154c0.038-0.106,0.098-0.14,0.173-0.113
				c0.089,0.032,0.118,0.083,0.071,0.213l-0.052,0.142L49.712,7.287z"/>
			<path fill="#1E181B" d="M52.809,3.848l0.405-0.307c0.206-0.154,0.255-0.371,0.085-0.594c-0.169-0.223-0.391-0.233-0.597-0.079
				l-0.407,0.307l0.057,0.075l0.066-0.049c0.022-0.017,0.05-0.026,0.069,0.001l0.346,0.454c0.021,0.028,0.007,0.051-0.018,0.069
				l-0.065,0.05L52.809,3.848z M52.604,3.059l0.137-0.101c0.108-0.083,0.246-0.09,0.398,0.109c0.152,0.202,0.107,0.332-0.011,0.421
				l-0.126,0.095L52.604,3.059z"/>
			<path fill="#1E181B" d="M61.131,3.725l0.063-0.071l-0.076-0.065c-0.018-0.016-0.029-0.031-0.016-0.044
				c0.008-0.008,0.014-0.013,0.021-0.017l0.115-0.068l0.221,0.189l-0.053,0.125c-0.004,0.007-0.008,0.019-0.018,0.027
				c-0.008,0.01-0.02,0.008-0.043-0.012l-0.074-0.066l-0.064,0.072l0.338,0.291l0.063-0.071c-0.051-0.044-0.078-0.081-0.057-0.14
				l0.256-0.683l-0.135-0.117l-0.635,0.355c-0.057,0.032-0.096,0.008-0.146-0.036l-0.063,0.071L61.131,3.725z M61.33,3.412
				l0.277-0.165l0.004,0.001l-0.119,0.305L61.33,3.412z"/>
			<path fill="#1E181B" d="M59.631,1.822c-0.256-0.109-0.502,0-0.602,0.233c-0.1,0.234-0.006,0.484,0.248,0.592
				c0.256,0.108,0.502,0.001,0.604-0.232C59.979,2.182,59.885,1.93,59.631,1.822 M59.592,1.914c0.189,0.079,0.176,0.255,0.102,0.423
				c-0.07,0.167-0.186,0.299-0.371,0.22c-0.191-0.079-0.18-0.255-0.109-0.423C59.285,1.966,59.404,1.834,59.592,1.914"/>
			<path fill="#1E181B" d="M65.186,12.656c-0.006-0.277-0.205-0.456-0.459-0.453c-0.256,0.005-0.447,0.193-0.441,0.468
				c0.006,0.276,0.201,0.458,0.459,0.453C64.998,13.118,65.191,12.932,65.186,12.656 M65.086,12.657
				c0.002,0.206-0.164,0.263-0.346,0.267c-0.186,0.002-0.352-0.05-0.355-0.251c-0.004-0.205,0.16-0.267,0.346-0.269
				C64.912,12.399,65.082,12.456,65.086,12.657 M65.219,11.108l-0.094-0.002v0.021c-0.002,0.044-0.016,0.076-0.049,0.097
				l-0.357,0.244l-0.215-0.004c-0.035-0.001-0.047-0.013-0.047-0.053l0.002-0.106l-0.094-0.002l-0.01,0.497l0.096,0.001v-0.108
				c0.002-0.038,0.027-0.051,0.055-0.05l0.201,0.004l0.357,0.273c0.031,0.022,0.043,0.054,0.041,0.1v0.022l0.096,0.001l0.008-0.405
				l-0.096-0.001l-0.002,0.094c0,0.021-0.016,0.031-0.029,0.031c-0.01,0-0.021-0.006-0.031-0.013l-0.211-0.162l0.217-0.141
				c0.012-0.008,0.021-0.012,0.031-0.011c0.016,0.001,0.029,0.01,0.029,0.032l-0.002,0.091l0.096,0.002L65.219,11.108z
				 M65.061,9.976l0.004,0.054c0.004,0.056-0.006,0.087-0.047,0.088l-0.471,0.031c-0.195,0.013-0.244,0.186-0.234,0.351
				c0.012,0.165,0.082,0.327,0.307,0.313l0.424-0.028c0.053-0.003,0.072,0.009,0.074,0.063l0.006,0.069l0.094-0.006l-0.025-0.405
				l-0.096,0.006l0.004,0.06c0.004,0.06-0.014,0.078-0.064,0.082l-0.416,0.026c-0.123,0.008-0.178-0.063-0.184-0.169
				c-0.008-0.108,0.033-0.177,0.123-0.183l0.475-0.031c0.031-0.002,0.051,0.01,0.053,0.074l0.004,0.058l0.096-0.005L65.156,9.97
				L65.061,9.976z M63.844,7.723l-0.326-0.777l0.088-0.036l0.027,0.065c0.018,0.039,0.037,0.057,0.109,0.027l0.459-0.191
				c0.051-0.021,0.061-0.042,0.035-0.103l-0.023-0.052l0.09-0.038l0.326,0.777l-0.313,0.131l-0.039-0.088
				c0.154-0.084,0.215-0.125,0.146-0.283l-0.088-0.207l-0.244,0.102l0.025,0.063c0.029,0.071,0.078,0.088,0.176,0.048l0.014-0.006
				l0.037,0.085l-0.395,0.165l-0.035-0.086l0.027-0.012c0.096-0.04,0.117-0.086,0.09-0.158l-0.027-0.061l-0.275,0.114l0.1,0.234
				c0.045,0.109,0.129,0.123,0.311,0.06l0.037,0.088L63.844,7.723z M63.008,5.932l0.24,0.449c0.121,0.227,0.328,0.308,0.578,0.177
				c0.246-0.132,0.293-0.348,0.17-0.575l-0.24-0.449l-0.084,0.044l0.039,0.071c0.014,0.026,0.018,0.054-0.012,0.069l-0.506,0.269
				c-0.029,0.016-0.051-0.002-0.064-0.028l-0.037-0.072L63.008,5.932z M63.82,5.857l0.082,0.148
				c0.064,0.121,0.049,0.257-0.172,0.375c-0.223,0.119-0.346,0.055-0.416-0.076L63.24,6.167L63.82,5.857z M58.668,2.427l0.02-0.092
				L58.615,2.32c-0.041-0.01-0.055-0.034-0.047-0.074l0.113-0.521c0.01-0.048,0.051-0.052,0.09-0.043l0.057,0.012l0.02-0.093
				l-0.443-0.096l-0.02,0.093l0.07,0.016c0.049,0.01,0.059,0.038,0.053,0.069l-0.117,0.541c-0.008,0.032-0.031,0.041-0.084,0.03
				L58.246,2.24l-0.02,0.092L58.668,2.427z M57.826,1.519c-0.051-0.06-0.141-0.106-0.225-0.115
				c-0.266-0.023-0.439,0.157-0.463,0.396c-0.025,0.271,0.1,0.471,0.367,0.496c0.223,0.02,0.361-0.093,0.396-0.313l-0.107-0.009
				c-0.027,0.133-0.107,0.228-0.254,0.215c-0.182-0.016-0.217-0.195-0.203-0.358c0.016-0.167,0.078-0.333,0.266-0.316
				c0.154,0.014,0.215,0.133,0.219,0.273l0.094,0.009l0.031-0.348l-0.09-0.009L57.826,1.519z M56.41,2.263l-0.006-0.094l-0.1,0.007
				c-0.025,0.001-0.043-0.002-0.043-0.021c0-0.012,0-0.02,0.004-0.027l0.033-0.131l0.291-0.018l0.051,0.125
				c0.002,0.007,0.006,0.019,0.006,0.03c0.002,0.014-0.008,0.021-0.037,0.023l-0.102,0.005l0.006,0.095l0.445-0.029l-0.006-0.095
				c-0.068,0.005-0.113-0.001-0.139-0.059l-0.301-0.664l-0.18,0.012l-0.199,0.696c-0.018,0.062-0.063,0.073-0.13,0.077l0.006,0.095
				L56.41,2.263z M56.33,1.902l0.082-0.313h0.002l0.133,0.299L56.33,1.902z M55.59,2.399l0.182-0.053l-0.197-0.678
				c-0.005-0.026,0.006-0.048,0.05-0.061l0.073-0.02L55.67,1.496l-0.4,0.115l0.026,0.09L55.37,1.68
				c0.046-0.011,0.071,0.002,0.081,0.04l0.127,0.437h-0.004l-0.525-0.482l-0.364,0.104l0.024,0.089l0.088-0.023
				c0.039-0.012,0.054-0.002,0.063,0.029l0.156,0.537c0.009,0.03,0.002,0.053-0.036,0.064L54.894,2.5l0.025,0.09l0.409-0.116
				l-0.027-0.092L55.208,2.41c-0.031,0.009-0.056-0.004-0.063-0.034l-0.151-0.518l0.004-0.001L55.59,2.399z M62.238,4.836
				l0.275-0.237l-0.061-0.071c-0.158,0.12-0.234,0.144-0.32,0.043l-0.137-0.157l0.459-0.392C62.488,3.993,62.51,4,62.547,4.042
				l0.047,0.054l0.074-0.061l-0.307-0.355l-0.072,0.061l0.049,0.057c0.031,0.039,0.031,0.062,0.002,0.086L61.924,4.24
				c-0.033,0.029-0.059,0.019-0.082-0.009L61.787,4.17l-0.07,0.062L62.238,4.836z M60.479,3.232l0.16,0.102l0.383-0.596
				c0.012-0.021,0.037-0.028,0.076-0.003l0.064,0.041l0.053-0.081l-0.354-0.223l-0.051,0.079l0.066,0.042
				c0.039,0.024,0.043,0.054,0.021,0.087l-0.244,0.383l-0.002-0.002l0.014-0.712l-0.318-0.202l-0.049,0.081l0.074,0.047
				c0.033,0.021,0.037,0.039,0.02,0.067L60.09,2.814c-0.016,0.025-0.039,0.036-0.072,0.015L59.943,2.78l-0.051,0.079l0.355,0.228
				l0.051-0.08l-0.08-0.051c-0.027-0.018-0.033-0.046-0.018-0.072l0.293-0.455v0.002L60.479,3.232z M52.318,4.334L52.25,4.269
				l-0.07,0.072c-0.016,0.018-0.031,0.026-0.044,0.015c-0.008-0.009-0.012-0.016-0.017-0.022l-0.063-0.119l0.2-0.208l0.121,0.057
				c0.009,0.003,0.018,0.009,0.025,0.018c0.01,0.008,0.007,0.021-0.014,0.042l-0.068,0.073l0.068,0.065l0.309-0.321l-0.07-0.064
				c-0.046,0.049-0.083,0.074-0.142,0.049l-0.673-0.285l-0.124,0.129l0.327,0.646c0.028,0.058,0.004,0.095-0.044,0.145l0.069,0.065
				L52.318,4.334z M52.013,4.123L51.86,3.837l0.001-0.002l0.301,0.132L52.013,4.123z M51.489,5.383l0.306-0.407
				c0.154-0.206,0.14-0.428-0.085-0.594c-0.224-0.168-0.44-0.117-0.596,0.088l-0.306,0.407l0.076,0.057l0.05-0.066
				c0.017-0.023,0.04-0.038,0.067-0.018l0.458,0.341c0.027,0.02,0.021,0.047,0.003,0.07l-0.05,0.065L51.489,5.383z M51.074,4.682
				l0.102-0.136c0.081-0.109,0.212-0.154,0.414-0.004c0.202,0.15,0.195,0.289,0.107,0.407l-0.095,0.125L51.074,4.682z M51.371,5.579
				l-0.237,0.384l-0.08-0.05l0.034-0.053c0.026-0.045,0.026-0.068-0.001-0.086l-0.475-0.291c-0.026-0.017-0.057-0.017-0.083,0.026
				L50.491,5.57l-0.079-0.05l0.236-0.385l0.082,0.049L50.7,5.233c-0.022,0.035-0.031,0.075,0.01,0.101l0.457,0.279
				c0.034,0.021,0.063,0.017,0.085-0.02l0.04-0.063L51.371,5.579z M50.27,5.948c-0.068,0.04-0.144,0.095-0.183,0.184
				c-0.064,0.139-0.062,0.319,0.103,0.393c0.335,0.152,0.42-0.434,0.619-0.344c0.056,0.024,0.081,0.096,0.035,0.196
				c-0.074,0.166-0.203,0.224-0.367,0.169l-0.038,0.085l0.315,0.143l0.036-0.079L50.733,6.64c0.087-0.042,0.162-0.113,0.203-0.2
				c0.073-0.162,0.078-0.334-0.107-0.417c-0.325-0.147-0.431,0.43-0.605,0.351c-0.078-0.035-0.085-0.091-0.036-0.199
				c0.063-0.139,0.188-0.171,0.327-0.141l0.039-0.083L50.26,5.816l-0.031,0.067L50.27,5.948z M50.253,8.037l-0.348-0.093
				l-0.022,0.091c0.181,0.061,0.239,0.124,0.208,0.238L50.025,8.52l-0.287-0.078l0.016-0.065c0.021-0.074,0.067-0.097,0.168-0.07
				l0.029,0.009l0.024-0.092l-0.412-0.111l-0.024,0.091l0.015,0.004c0.101,0.027,0.129,0.07,0.109,0.145l-0.018,0.064L49.389,8.35
				l0.058-0.217c0.044-0.166,0.115-0.162,0.288-0.135l0.025-0.091l-0.328-0.088l-0.218,0.813l0.092,0.024l0.015-0.055
				c0.017-0.064,0.038-0.076,0.09-0.061l0.481,0.129c0.075,0.02,0.081,0.045,0.069,0.088l-0.018,0.068l0.091,0.025L50.253,8.037z
				 M49.162,8.853l-0.068,0.402l0.093,0.016l0.013-0.077c0.007-0.037,0.02-0.06,0.042-0.055c0.015,0.001,0.028,0.009,0.048,0.02
				l0.43,0.248v0.002l-0.486,0.078c-0.017,0.003-0.033,0.007-0.054,0.003c-0.02-0.003-0.026-0.021-0.02-0.059l0.013-0.077
				l-0.093-0.017l-0.076,0.446l0.092,0.015l0.007-0.035c0.009-0.047,0.022-0.073,0.085-0.083l0.717-0.131l0.03-0.172l-0.624-0.36
				c-0.058-0.033-0.069-0.062-0.059-0.121l0.004-0.029L49.162,8.853z M49.829,10.091l-0.093-0.007l-0.005,0.074
				c-0.004,0.043-0.027,0.061-0.068,0.058l-0.533-0.04c-0.05-0.005-0.06-0.044-0.056-0.085l0.004-0.056l-0.095-0.007l-0.034,0.45
				l0.095,0.006l0.006-0.072c0.002-0.049,0.03-0.062,0.062-0.059l0.554,0.041c0.034,0.002,0.047,0.024,0.042,0.077l-0.006,0.063
				l0.096,0.007L49.829,10.091z M49.797,11.029l-0.002-0.189l-0.709,0.002c-0.026,0-0.045-0.018-0.045-0.063l-0.001-0.076h-0.094
				l0.001,0.416h0.095v-0.078c0-0.045,0.021-0.066,0.06-0.067l0.455,0v0.002l-0.609,0.374l0.002,0.376h0.095v-0.09
				c0-0.04,0.013-0.052,0.047-0.053l0.562-0.002c0.031,0,0.051,0.014,0.051,0.052v0.09H49.8l-0.003-0.423L49.702,11.3l0.001,0.096
				c0,0.033-0.021,0.052-0.051,0.052l-0.542,0.002v-0.003L49.797,11.029z M49.124,12.923l-0.005-0.054
				c-0.005-0.056,0.005-0.087,0.045-0.09l0.469-0.043c0.196-0.02,0.24-0.194,0.223-0.358c-0.015-0.163-0.089-0.324-0.313-0.303
				l-0.424,0.039c-0.053,0.005-0.071-0.005-0.077-0.059l-0.007-0.07l-0.093,0.009l0.038,0.404l0.094-0.01l-0.007-0.059
				c-0.004-0.059,0.013-0.078,0.063-0.082l0.414-0.04c0.125-0.011,0.181,0.058,0.19,0.164c0.01,0.109-0.029,0.178-0.119,0.187
				l-0.472,0.044c-0.034,0.002-0.051-0.008-0.058-0.074l-0.006-0.059l-0.093,0.01l0.042,0.451L49.124,12.923z M64.244,16.011
				l-0.088-0.035l-0.035,0.093c-0.01,0.024-0.02,0.037-0.037,0.03c-0.01-0.004-0.018-0.008-0.023-0.015L63.957,16l0.104-0.271
				l0.135,0.007c0.008,0,0.02,0.002,0.031,0.006c0.012,0.003,0.014,0.016,0.002,0.042l-0.035,0.094l0.09,0.034l0.158-0.413
				l-0.09-0.034c-0.023,0.063-0.047,0.1-0.111,0.1l-0.73-0.006l-0.064,0.166l0.551,0.473c0.049,0.042,0.041,0.086,0.018,0.147
				l0.088,0.035L64.244,16.011z M63.881,15.932l-0.252-0.206l0.002-0.002l0.326,0.007L63.881,15.932z M63.881,16.774l-0.803,0.044
				l-0.002,0.002l0.477,0.253c0.027,0.015,0.055,0.007,0.07-0.021l0.045-0.084l0.084,0.044l-0.199,0.372l-0.086-0.045l0.043-0.08
				c0.02-0.034,0.008-0.055-0.02-0.068l-0.496-0.265c-0.029-0.016-0.047-0.011-0.064,0.023l-0.043,0.079l-0.082-0.044l0.178-0.332
				l0.715-0.04v-0.002l-0.402-0.215c-0.033-0.017-0.063-0.01-0.084,0.032l-0.037,0.067l-0.082-0.045l0.197-0.365l0.082,0.044
				l-0.035,0.066c-0.021,0.042-0.014,0.064,0.01,0.078l0.625,0.334L63.881,16.774z M63.346,17.691l-0.078-0.054l-0.043,0.061
				c-0.025,0.034-0.055,0.039-0.088,0.016l-0.439-0.307c-0.039-0.027-0.025-0.067-0.002-0.1l0.031-0.046l-0.078-0.054l-0.26,0.37
				l0.078,0.054l0.041-0.059c0.027-0.04,0.059-0.038,0.084-0.02l0.455,0.317c0.027,0.019,0.027,0.044-0.004,0.087l-0.035,0.051
				l0.076,0.054L63.346,17.691z M61.715,18.321l0.541-0.578l0.256,0.238l-0.064,0.068l-0.043-0.039
				c-0.098-0.092-0.191-0.082-0.287,0.022l0.447,0.416c0.023,0.022,0.043,0.021,0.07-0.007l0.066-0.072l0.068,0.066l-0.326,0.349
				l-0.07-0.064l0.068-0.071c0.025-0.03,0.025-0.047,0.002-0.069l-0.449-0.417c-0.098,0.104-0.102,0.197-0.002,0.289l0.043,0.039
				l-0.064,0.068L61.715,18.321z M61.852,19.262l0.15-0.116l-0.434-0.559c-0.018-0.022-0.014-0.046,0.023-0.076l0.059-0.045
				l-0.057-0.074l-0.332,0.255l0.059,0.074l0.063-0.049c0.035-0.027,0.066-0.023,0.088,0.007l0.281,0.359l-0.004,0.002l-0.668-0.255
				l-0.297,0.23l0.057,0.074l0.07-0.054c0.031-0.025,0.049-0.023,0.07,0.004l0.344,0.444c0.018,0.023,0.021,0.047-0.012,0.072
				l-0.068,0.054l0.057,0.075l0.336-0.258l-0.059-0.075l-0.076,0.06c-0.027,0.02-0.053,0.015-0.072-0.01l-0.332-0.426l0.002-0.002
				L61.852,19.262z M61.1,19.848l-0.723,0.435l-0.051-0.079l0.063-0.038c0.037-0.021,0.051-0.045,0.014-0.109l-0.26-0.424
				c-0.029-0.048-0.051-0.053-0.107-0.02l-0.049,0.03l-0.051-0.081l0.723-0.437l0.176,0.288l-0.082,0.048
				c-0.105-0.139-0.154-0.19-0.303-0.101l-0.191,0.117l0.139,0.227l0.057-0.035c0.066-0.04,0.076-0.09,0.021-0.179l-0.008-0.014
				l0.08-0.049l0.223,0.364l-0.08,0.05l-0.018-0.027c-0.053-0.089-0.102-0.105-0.168-0.064l-0.059,0.035l0.154,0.254l0.219-0.133
				c0.1-0.061,0.102-0.146,0.014-0.315l0.08-0.05L61.1,19.848z M59.66,19.782c-0.084-0.029-0.178-0.038-0.273-0.004
				c-0.236,0.087-0.32,0.318-0.232,0.56c0.096,0.257,0.307,0.368,0.539,0.283c0.088-0.032,0.172-0.095,0.221-0.176l0.066,0.044
				l0.088-0.03l-0.102-0.276c-0.018-0.047-0.01-0.063,0.043-0.083l0.061-0.022l-0.033-0.089l-0.434,0.158l0.031,0.089l0.078-0.028
				c0.031-0.011,0.07-0.007,0.084,0.034l0.018,0.046c0.031,0.09-0.002,0.173-0.123,0.217c-0.168,0.062-0.279-0.053-0.346-0.235
				c-0.066-0.177-0.039-0.345,0.092-0.393c0.158-0.058,0.26,0.034,0.336,0.138l0.092-0.034l-0.111-0.307l-0.09,0.031L59.66,19.782z
				 M58.561,20.88l-0.025-0.09l-0.09,0.024c-0.039,0.01-0.053,0.001-0.063-0.03l-0.068-0.248l0.072-0.02
				c0.146-0.039,0.201-0.009,0.256,0.189c0.027,0.1,0.082,0.156,0.205,0.123c0.104-0.028,0.156-0.104,0.111-0.26l-0.01-0.038
				l-0.082,0.021l0.01,0.039c0.021,0.072,0.016,0.101-0.014,0.11c-0.021,0.006-0.057-0.006-0.092-0.137
				c-0.027-0.096-0.07-0.144-0.207-0.125v-0.002c0.123-0.045,0.213-0.135,0.178-0.262c-0.035-0.134-0.139-0.181-0.318-0.132
				l-0.54,0.146l0.027,0.091l0.086-0.023c0.038-0.011,0.055-0.002,0.063,0.031l0.148,0.544c0.01,0.033,0,0.047-0.037,0.059
				l-0.088,0.023l0.025,0.091L58.561,20.88z M58.221,20.192l0.158-0.043c0.109-0.029,0.17,0,0.191,0.077
				c0.025,0.091-0.002,0.145-0.135,0.181l-0.145,0.04L58.221,20.192z M57.275,21.074l-0.002-0.094l-0.1,0.001
				c-0.025,0-0.041-0.005-0.041-0.022c0-0.012,0.002-0.02,0.006-0.026l0.039-0.128l0.289-0.006l0.045,0.127
				c0.004,0.007,0.008,0.02,0.008,0.03c0,0.012-0.012,0.02-0.039,0.02l-0.104,0.002l0.004,0.094l0.443-0.008l-0.002-0.093
				c-0.066,0.001-0.111-0.007-0.135-0.067l-0.268-0.678l-0.18,0.003l-0.232,0.686c-0.021,0.061-0.064,0.071-0.133,0.072v0.094
				L57.275,21.074z M57.212,20.708l0.098-0.307l0.002-0.001l0.117,0.306L57.212,20.708z M54.83,20.724l0.035-0.087l-0.095-0.036
				c-0.023-0.008-0.036-0.02-0.029-0.037c0.004-0.011,0.01-0.016,0.014-0.023l0.086-0.104l0.271,0.104l-0.007,0.134
				c0,0.007-0.001,0.019-0.006,0.03c-0.004,0.011-0.017,0.013-0.043,0.002l-0.095-0.035l-0.034,0.087l0.416,0.159l0.034-0.088
				c-0.063-0.024-0.102-0.047-0.102-0.112l0.008-0.728l-0.169-0.063l-0.474,0.55c-0.041,0.047-0.087,0.04-0.15,0.016l-0.034,0.088
				L54.83,20.724z M54.909,20.363l0.206-0.251h0.003l-0.007,0.327L54.909,20.363z M53.57,20.146l0.047-0.09l0.753-0.343
				l-0.159-0.083c-0.132-0.067-0.193-0.072-0.307,0.135l-0.084-0.044l0.163-0.314l0.614,0.316l-0.046,0.091L53.8,20.157l0.137,0.072
				c0.174,0.089,0.237,0.09,0.363-0.135l0.083,0.046l-0.175,0.335L53.57,20.146z M51.329,18.235l0.115,0.148l0.562-0.433
				c0.02-0.016,0.046-0.012,0.074,0.023l0.047,0.06l0.074-0.058l-0.256-0.329l-0.073,0.059l0.046,0.061
				c0.028,0.037,0.025,0.066-0.006,0.089l-0.36,0.278l-0.002-0.002l0.255-0.666l-0.231-0.296l-0.075,0.057l0.055,0.071
				c0.026,0.032,0.021,0.049-0.003,0.069l-0.445,0.343c-0.025,0.019-0.049,0.021-0.073-0.01l-0.054-0.07l-0.076,0.057l0.261,0.334
				l0.074-0.059l-0.06-0.075c-0.02-0.026-0.015-0.054,0.01-0.072l0.428-0.331l0.002,0.002L51.329,18.235z M50.693,17.444
				l-0.411-0.735l0.083-0.045l0.035,0.063c0.021,0.038,0.044,0.051,0.111,0.015l0.436-0.24c0.048-0.027,0.055-0.049,0.023-0.106
				l-0.028-0.05l0.083-0.046l0.41,0.737l-0.295,0.163l-0.046-0.084c0.143-0.1,0.195-0.147,0.112-0.295l-0.11-0.197l-0.232,0.128
				l0.033,0.06c0.037,0.066,0.088,0.078,0.179,0.028l0.014-0.009l0.046,0.083l-0.374,0.206l-0.045-0.083l0.026-0.013
				c0.091-0.05,0.109-0.1,0.071-0.167l-0.033-0.06L50.52,16.94l0.126,0.223c0.056,0.103,0.144,0.106,0.315,0.024l0.046,0.082
				L50.693,17.444z M50.425,15.38l0.002,0.001l-0.563,0.506l0.042,0.096l0.759-0.071l0.001,0.001l-0.531,0.238
				c-0.023,0.011-0.047-0.001-0.062-0.032l-0.035-0.077l-0.086,0.039l0.182,0.403l0.085-0.039l-0.032-0.072
				c-0.015-0.034-0.004-0.06,0.033-0.077l0.507-0.225c0.028-0.013,0.048,0,0.06,0.027l0.036,0.078l0.086-0.039l-0.158-0.35
				l-0.585,0.048l-0.002-0.002l0.437-0.382l-0.165-0.366l-0.087,0.039L50.38,15.2c0.013,0.026,0.009,0.05-0.019,0.063l-0.523,0.234
				c-0.028,0.011-0.046,0.004-0.062-0.033l-0.031-0.07l-0.086,0.039l0.164,0.365l0.086-0.039l-0.032-0.072
				c-0.012-0.024-0.013-0.058,0.016-0.07L50.425,15.38z M65.043,9.53c0.039-0.067,0.055-0.167,0.033-0.247
				c-0.066-0.257-0.297-0.362-0.531-0.302c-0.262,0.067-0.412,0.25-0.346,0.509c0.057,0.216,0.211,0.309,0.43,0.269l-0.027-0.107
				c-0.135,0.021-0.25-0.022-0.287-0.162c-0.047-0.178,0.111-0.271,0.271-0.312c0.162-0.042,0.34-0.039,0.387,0.143
				c0.039,0.148-0.055,0.245-0.186,0.296l0.023,0.091l0.34-0.086l-0.021-0.087L65.043,9.53z"/>
			<path fill="#1D1E1C" d="M95.766,12.442h0.551c0.352,0,0.639,0.108,0.861,0.327c0.225,0.218,0.336,0.515,0.336,0.892
				c0,0.417-0.105,0.728-0.318,0.931c-0.213,0.204-0.525,0.307-0.936,0.307h-0.494V12.442z M95.299,15.311h0.967
				c0.553,0,0.982-0.143,1.289-0.429c0.307-0.285,0.459-0.699,0.459-1.241c0-0.492-0.164-0.884-0.498-1.176
				c-0.332-0.29-0.748-0.436-1.25-0.436h-0.967V15.311z M93.857,14.098h-1.313l0.656-1.632L93.857,14.098z M91.57,15.311l0.49-0.002
				l0.336-0.824h1.611l0.334,0.824l0.51,0.002l-1.387-3.282h-0.496L91.57,15.311z M88.98,12.442h0.551
				c0.35,0,0.639,0.108,0.861,0.327c0.225,0.218,0.336,0.515,0.336,0.892c0,0.417-0.105,0.728-0.318,0.931
				c-0.215,0.204-0.525,0.307-0.938,0.307H88.98V12.442z M88.512,15.311h0.969c0.551,0,0.98-0.143,1.287-0.429
				c0.309-0.285,0.461-0.699,0.461-1.241c0-0.492-0.166-0.884-0.498-1.176c-0.332-0.29-0.748-0.436-1.25-0.436h-0.969V15.311z
				 M87.232,15.311h0.469v-3.282h-0.469V15.311z M86.439,12.092c-0.113-0.041-0.23-0.072-0.354-0.089
				c-0.123-0.019-0.238-0.029-0.348-0.029c-0.307,0-0.559,0.079-0.756,0.235c-0.197,0.157-0.297,0.377-0.297,0.659
				c0,0.292,0.123,0.524,0.365,0.696c0.229,0.12,0.457,0.243,0.691,0.37c0.234,0.127,0.354,0.291,0.354,0.487
				c0,0.179-0.066,0.313-0.203,0.402c-0.135,0.089-0.281,0.134-0.441,0.134c-0.105,0-0.223-0.016-0.35-0.051
				c-0.125-0.034-0.236-0.072-0.33-0.114l-0.047,0.442c0.133,0.044,0.256,0.077,0.361,0.102c0.107,0.023,0.209,0.034,0.311,0.034
				c0.355,0,0.646-0.078,0.867-0.239c0.221-0.16,0.332-0.406,0.332-0.739c0-0.312-0.066-0.517-0.197-0.62
				c-0.133-0.101-0.367-0.243-0.705-0.422c-0.338-0.181-0.508-0.355-0.508-0.524c0-0.158,0.057-0.269,0.17-0.337
				s0.246-0.101,0.402-0.101c0.117,0,0.217,0.01,0.299,0.031c0.082,0.02,0.189,0.055,0.316,0.105L86.439,12.092z M82.453,12.442
				h0.451c0.213,0,0.377,0.042,0.49,0.129c0.111,0.087,0.168,0.204,0.168,0.355c0,0.16-0.063,0.284-0.188,0.375
				c-0.127,0.09-0.299,0.136-0.521,0.136h-0.4V12.442z M81.984,15.311h0.469v-1.46h0.281c0.148,0,0.262,0.018,0.338,0.053
				c0.076,0.035,0.148,0.124,0.215,0.27l0.504,1.136l0.533,0.002l-0.619-1.307c-0.049-0.098-0.098-0.171-0.143-0.22
				c-0.045-0.049-0.104-0.089-0.176-0.121c0.199-0.034,0.363-0.119,0.488-0.254c0.127-0.134,0.189-0.299,0.189-0.493
				c0-0.357-0.113-0.594-0.338-0.712c-0.223-0.117-0.537-0.175-0.938-0.175h-0.805V15.311z M79.422,15.311h1.84v-0.413h-1.371
				v-1.084h1.248v-0.413h-1.248v-0.958h1.371v-0.413h-1.84V15.311z M78.953,12.029l-0.492,0.001l-1.051,2.87L76.4,12.03l-0.527,0
				l1.236,3.282h0.586L78.953,12.029z M74.957,15.311h0.469v-3.282h-0.469V15.311z M71.561,15.311h0.469l0.008-2.699l1.488,2.699
				h0.6v-3.282h-0.467l-0.01,2.637l-1.449-2.639l-0.639,0.002V15.311z M70.723,12.029h-0.467v1.864c0,0.341-0.063,0.604-0.188,0.788
				c-0.123,0.184-0.33,0.275-0.617,0.275c-0.291,0-0.496-0.093-0.621-0.28s-0.186-0.448-0.186-0.783v-1.864h-0.467v1.924
				c0,0.458,0.109,0.809,0.33,1.053c0.219,0.243,0.535,0.363,0.943,0.363c0.406,0,0.721-0.121,0.941-0.363
				c0.221-0.244,0.33-0.594,0.33-1.053V12.029z"/>
			<path fill="#1D1E1C" d="M110.199,17.442c-0.281,0.317-0.422,0.725-0.422,1.223c0,0.511,0.139,0.922,0.42,1.232
				c0.279,0.311,0.666,0.466,1.158,0.466c0.49,0,0.877-0.156,1.158-0.467c0.279-0.313,0.42-0.724,0.42-1.231
				c0-0.495-0.143-0.903-0.426-1.221c-0.283-0.318-0.666-0.478-1.152-0.478C110.865,16.967,110.479,17.125,110.199,17.442
				 M110.547,19.578c-0.182-0.248-0.271-0.551-0.271-0.913c0-0.361,0.096-0.666,0.281-0.913c0.189-0.248,0.455-0.372,0.799-0.372
				s0.607,0.125,0.797,0.372c0.188,0.248,0.281,0.552,0.281,0.913c0,0.357-0.092,0.661-0.275,0.91
				c-0.182,0.25-0.449,0.375-0.803,0.375C110.994,19.951,110.725,19.827,110.547,19.578 M107.729,20.304h0.469v-1.372l1.281-1.91
				h-0.553l-0.957,1.467l-0.977-1.464l-0.547-0.002l1.283,1.91V20.304z M105.969,17.022h-0.467v1.864
				c0,0.343-0.063,0.605-0.188,0.789c-0.123,0.183-0.328,0.276-0.617,0.276s-0.498-0.095-0.621-0.281
				c-0.123-0.187-0.186-0.447-0.186-0.784v-1.864h-0.469v1.925c0,0.458,0.111,0.809,0.332,1.051s0.535,0.365,0.943,0.365
				c0.406,0,0.721-0.122,0.941-0.365s0.33-0.594,0.33-1.051V17.022z M102.85,17.108c-0.121-0.054-0.238-0.09-0.352-0.111
				c-0.111-0.02-0.24-0.031-0.385-0.031c-0.508,0-0.924,0.155-1.248,0.463c-0.326,0.309-0.486,0.717-0.486,1.221
				c0,0.524,0.154,0.94,0.471,1.249s0.734,0.463,1.26,0.463c0.135,0,0.264-0.008,0.389-0.023c0.125-0.016,0.246-0.048,0.357-0.094
				l-0.029-0.461c-0.076,0.049-0.186,0.088-0.322,0.12c-0.139,0.03-0.268,0.046-0.391,0.046c-0.348,0-0.641-0.12-0.879-0.358
				c-0.238-0.239-0.357-0.548-0.357-0.927c0-0.373,0.117-0.682,0.35-0.923c0.23-0.242,0.533-0.362,0.91-0.362
				c0.244,0,0.471,0.062,0.678,0.184L102.85,17.108z M96.65,20.304h1.84v-0.412h-1.371v-1.084h1.246v-0.413h-1.246v-0.959h1.371
				v-0.413h-1.84V20.304z M93.676,17.435h0.549c0.352,0,0.639,0.11,0.861,0.327c0.225,0.218,0.338,0.516,0.338,0.892
				c0,0.417-0.107,0.728-0.32,0.932s-0.523,0.306-0.936,0.306h-0.492V17.435z M93.207,20.304h0.969c0.551,0,0.98-0.142,1.287-0.428
				c0.309-0.284,0.461-0.698,0.461-1.24c0-0.493-0.166-0.884-0.498-1.177c-0.332-0.291-0.75-0.437-1.25-0.437h-0.969V20.304z
				 M89.572,20.304h1.844v-0.412h-1.375v-2.87h-0.469V20.304z M88.109,19.093h-1.311l0.656-1.633L88.109,19.093z M85.822,20.304
				l0.49-0.004l0.336-0.822h1.613l0.332,0.823l0.51,0.002l-1.387-3.282h-0.494L85.822,20.304z M82.787,20.304h0.469l0.01-2.699
				l1.486,2.699h0.6v-3.282h-0.467l-0.01,2.638l-1.447-2.638h-0.641V20.304z M79.391,17.442c-0.283,0.317-0.426,0.725-0.426,1.223
				c0,0.511,0.141,0.922,0.422,1.232c0.279,0.311,0.666,0.466,1.158,0.466c0.49,0,0.879-0.156,1.158-0.467
				c0.279-0.313,0.42-0.724,0.42-1.231c0-0.495-0.143-0.903-0.426-1.221c-0.283-0.318-0.668-0.478-1.152-0.478
				C80.057,16.967,79.67,17.125,79.391,17.442 M79.736,19.578c-0.182-0.248-0.271-0.551-0.271-0.913
				c0-0.361,0.094-0.666,0.283-0.913c0.186-0.248,0.453-0.372,0.797-0.372s0.609,0.125,0.797,0.372s0.281,0.552,0.281,0.913
				c0,0.357-0.092,0.661-0.275,0.91c-0.182,0.25-0.451,0.375-0.803,0.375C80.186,19.951,79.914,19.827,79.736,19.578 M77.828,20.304
				h0.469v-3.282h-0.469V20.304z M77.262,17.108c-0.121-0.054-0.24-0.09-0.352-0.111c-0.113-0.02-0.24-0.031-0.385-0.031
				c-0.508,0-0.924,0.155-1.25,0.463c-0.324,0.309-0.488,0.717-0.488,1.221c0,0.524,0.16,0.94,0.475,1.249s0.734,0.463,1.258,0.463
				c0.135,0,0.266-0.008,0.391-0.023c0.125-0.016,0.242-0.048,0.357-0.094l-0.029-0.461c-0.078,0.049-0.186,0.088-0.324,0.12
				c-0.139,0.03-0.268,0.046-0.389,0.046c-0.35,0-0.643-0.12-0.881-0.358c-0.236-0.239-0.357-0.548-0.357-0.927
				c0-0.373,0.117-0.682,0.35-0.923c0.23-0.242,0.535-0.362,0.91-0.362c0.244,0,0.473,0.062,0.678,0.184L77.262,17.108z
				 M73.488,19.093h-1.311l0.656-1.633L73.488,19.093z M71.203,20.304l0.488-0.004l0.338-0.822h1.611l0.334,0.823l0.51,0.002
				l-1.387-3.282h-0.496L71.203,20.304z M68.168,20.304h0.467l0.01-2.699l1.488,2.699h0.6v-3.282h-0.469l-0.01,2.638l-1.447-2.638
				h-0.639V20.304z"/>
			<path fill="#1D1E1C" d="M106.02,3.291c-0.705,0.792-1.059,1.811-1.059,3.058c0,1.278,0.352,2.306,1.053,3.082
				c0.701,0.775,1.666,1.164,2.895,1.164c1.23,0,2.195-0.39,2.896-1.17c0.701-0.781,1.051-1.806,1.051-3.075
				c0-1.239-0.354-2.255-1.063-3.051s-1.67-1.195-2.885-1.195C107.688,2.102,106.725,2.5,106.02,3.291 M106.885,8.627
				c-0.449-0.618-0.674-1.378-0.674-2.279s0.234-1.661,0.703-2.279c0.469-0.62,1.133-0.929,1.994-0.929s1.527,0.31,1.994,0.929
				c0.471,0.618,0.705,1.378,0.705,2.279c0,0.893-0.23,1.651-0.686,2.274c-0.459,0.623-1.129,0.934-2.014,0.934
				C108.008,9.556,107.334,9.247,106.885,8.627 M100.902,10.446h1.176V7.015l3.195-4.765L103.9,2.253l-2.395,3.671l-2.434-3.671
				L97.701,2.25l3.201,4.767V10.446z M97.057,2.25h-1.176v4.652c0,0.854-0.154,1.509-0.465,1.967
				c-0.309,0.458-0.824,0.687-1.545,0.687c-0.723,0-1.236-0.232-1.545-0.698c-0.311-0.466-0.465-1.118-0.465-1.956V2.25h-1.176
				v4.807c0,1.144,0.275,2.02,0.83,2.625c0.553,0.609,1.336,0.911,2.355,0.911s1.803-0.302,2.357-0.911
				c0.551-0.606,0.828-1.482,0.828-2.625V2.25z M89.801,2.457c-0.307-0.134-0.6-0.226-0.883-0.278
				c-0.281-0.051-0.604-0.078-0.961-0.078c-1.27,0-2.311,0.388-3.121,1.16c-0.813,0.772-1.219,1.789-1.219,3.052
				c0,1.309,0.395,2.349,1.182,3.121c0.789,0.772,1.838,1.159,3.145,1.159c0.338,0,0.662-0.02,0.975-0.059
				c0.314-0.04,0.613-0.117,0.895-0.236l-0.07-1.145c-0.195,0.117-0.467,0.214-0.811,0.29c-0.346,0.076-0.67,0.113-0.975,0.113
				c-0.871,0-1.604-0.296-2.199-0.892s-0.893-1.367-0.893-2.315c0-0.932,0.291-1.7,0.869-2.303c0.58-0.603,1.34-0.905,2.279-0.905
				c0.611,0,1.176,0.153,1.691,0.457L89.801,2.457z M76.08,10.446h1.174l0.025-6.737l3.711,6.737h1.506V2.25H81.32l-0.023,6.583
				l-3.619-6.585L76.08,2.25V10.446z M74.537,2.25h-1.174v4.652c0,0.854-0.156,1.509-0.467,1.967
				c-0.311,0.458-0.824,0.687-1.545,0.687s-1.236-0.232-1.547-0.698c-0.309-0.466-0.463-1.118-0.463-1.956V2.25h-1.176v4.807
				c0,1.144,0.275,2.02,0.828,2.625c0.553,0.609,1.34,0.911,2.357,0.911c1.02,0,1.803-0.302,2.355-0.911
				c0.553-0.606,0.83-1.482,0.83-2.625V2.25z"/>
		</g>
		<g>
			<path fill="#0092D4" d="M39.476,12.464L37.4,15.551c-4.047-2.479-8.995-4.723-13.458-3.013c-1.191,0.49-1.523,0.63-2.34,1.187
				c-0.012,0.007-0.141,0.104-0.155,0.113c-0.009,0.008-0.752-0.542-0.752-0.542s0.157-0.14,0.187-0.167
				c2.962-2.746,6.454-4.78,11.44-3.859C35.15,9.781,37.614,11.043,39.476,12.464"/>
			<path fill="#0092D4" d="M9.271,9.415c3.762,0.085,7.074,2.268,10.032,4.423c3.012,2.194,6.318,4.217,9.901,5.263
				c1.803,0.525,3.732,0.767,5.581,0.344c-1.272,1.345-2.816,2.243-4.616,2.629c-1.809,0.388-3.717,0.375-5.521-0.031
				c-1.801-0.403-3.44-1.109-5.079-1.968c-1.662-0.868-3.244-2.091-4.71-3.255c-2.185-1.737-4.557-3.457-7.251-4.25
				c-1.346-0.396-2.718-0.532-4.068-0.064C2.919,12.72,2.292,13.026,1.827,13.5c-0.214,0.219-0.406,0.508-0.551,0.78
				c-0.078,0.142-0.257,0.641-0.261,0.702c-0.01-0.021,0.003-0.223,0.032-0.421c0.03-0.241,0.095-0.477,0.173-0.707
				c0.148-0.44,0.367-0.843,0.639-1.213c0.543-0.735,1.257-1.321,2.02-1.8C5.487,9.831,7.385,9.373,9.271,9.415"/>
			<path fill="#1D1E1C" d="M5.103,4.714c-0.555,0.14-1.068,0.21-1.545,0.21c-0.783,0-1.406-0.2-1.865-0.599
				C1.231,3.926,1,3.384,1,2.704c0-0.663,0.229-1.199,0.689-1.603C2.144,0.701,2.75,0.5,3.505,0.5c0.557,0,1.073,0.054,1.547,0.165
				l0.103,0.833H4.899l-0.012-0.05C4.833,1.198,4.69,1.004,4.455,0.871C4.22,0.735,3.915,0.666,3.538,0.666
				c-0.517,0-0.94,0.19-1.272,0.575c-0.333,0.382-0.5,0.87-0.5,1.463c0,0.612,0.168,1.108,0.512,1.486
				c0.345,0.38,0.795,0.566,1.353,0.566c0.749,0,1.184-0.265,1.302-0.805l0.014-0.046h0.26L5.103,4.714z"/>
			<path fill="#1D1E1C" d="M8.071,4.29c-0.322-0.382-0.479-0.873-0.479-1.47c0-0.598,0.158-1.088,0.482-1.471
				c0.322-0.382,0.729-0.575,1.229-0.575c0.495,0,0.905,0.193,1.226,0.575c0.322,0.383,0.482,0.873,0.482,1.471
				c0,0.598-0.161,1.088-0.482,1.47c-0.321,0.383-0.731,0.574-1.226,0.574C8.803,4.863,8.389,4.672,8.071,4.29 M11.097,4.412
				C11.56,4,11.795,3.467,11.795,2.819c0-0.333-0.08-0.657-0.238-0.966c-0.158-0.315-0.367-0.57-0.639-0.771
				c-0.417-0.316-0.958-0.477-1.616-0.477c-0.733,0-1.33,0.207-1.795,0.618c-0.466,0.417-0.7,0.947-0.7,1.596
				c0,0.647,0.234,1.181,0.7,1.592C7.973,4.828,8.569,5.03,9.303,5.03C10.029,5.03,10.63,4.828,11.097,4.412"/>
			<path fill="#1D1E1C" d="M14.587,1.681v2.508c0,0.226,0.037,0.371,0.107,0.439c0.073,0.071,0.224,0.105,0.458,0.105h0.062v0.171
				h-1.612V4.733h0.038c0.231,0,0.381-0.034,0.451-0.105c0.072-0.068,0.105-0.213,0.105-0.439V1.32l-0.1-0.102
				c-0.198-0.209-0.378-0.313-0.545-0.313h-0.059v-0.17h0.999l3.089,3.064V1.447c0-0.226-0.041-0.373-0.11-0.442
				c-0.074-0.07-0.229-0.1-0.465-0.1h-0.05v-0.17h1.611v0.17h-0.06c-0.229,0-0.382,0.03-0.456,0.1
				c-0.072,0.069-0.108,0.216-0.108,0.442l-0.007,3.584L14.587,1.681z"/>
			<path fill="#1D1E1C" d="M22.295,4.904h-1.931V4.733h0.051c0.233,0,0.388-0.034,0.462-0.104c0.073-0.069,0.106-0.214,0.106-0.438
				V1.447c0-0.226-0.033-0.373-0.106-0.442c-0.074-0.07-0.229-0.1-0.462-0.1h-0.051v-0.17h1.931v0.17h-0.049
				c-0.237,0-0.391,0.03-0.463,0.1c-0.078,0.069-0.113,0.216-0.113,0.442v2.744c0,0.224,0.035,0.37,0.113,0.438
				c0.073,0.07,0.226,0.104,0.463,0.104h0.049V4.904z"/>
			<path fill="#1D1E1C" d="M28.158,4.824c-0.554,0.138-1.066,0.206-1.541,0.206c-0.789,0-1.41-0.197-1.869-0.599
				c-0.459-0.397-0.69-0.937-0.69-1.619c0-0.664,0.23-1.2,0.686-1.601C25.2,0.808,25.81,0.605,26.56,0.605
				c0.561,0,1.076,0.059,1.549,0.167l0.105,0.835h-0.262l-0.008-0.054c-0.054-0.247-0.199-0.44-0.432-0.576
				c-0.237-0.135-0.542-0.206-0.918-0.206c-0.515,0-0.94,0.194-1.273,0.577c-0.334,0.382-0.504,0.867-0.504,1.462
				c0,0.612,0.172,1.107,0.519,1.487c0.343,0.381,0.793,0.568,1.348,0.568c0.75,0,1.185-0.271,1.309-0.807L28,4.012h0.262
				L28.158,4.824z"/>
			<path fill="#1D1E1C" d="M31.186,2.804v1.405c0,0.181,0.096,0.305,0.286,0.378c0.189,0.072,0.522,0.106,1.002,0.106h0.141
				c0.211,0,0.365-0.041,0.466-0.124c0.098-0.086,0.169-0.235,0.212-0.446l0.01-0.05h0.26l-0.102,0.909
				c-0.43-0.026-0.748-0.034-0.958-0.034c-0.219,0-0.481-0.01-0.778-0.024c-0.298-0.016-0.477-0.02-0.539-0.02h-1.31V4.733h0.063
				c0.223,0,0.372-0.036,0.449-0.108c0.077-0.073,0.114-0.218,0.114-0.436V1.448c0-0.229-0.036-0.375-0.105-0.444
				c-0.07-0.069-0.223-0.1-0.458-0.1h-0.063V0.735h3.456l0.105,0.771h-0.263l-0.007-0.057c-0.042-0.234-0.128-0.377-0.256-0.427
				c-0.124-0.053-0.461-0.079-0.997-0.079h-0.727v1.695h0.783c0.36,0,0.589-0.027,0.691-0.073c0.1-0.049,0.148-0.161,0.148-0.338
				V2.177h0.267V3.26h-0.267V3.218c0-0.155-0.041-0.268-0.124-0.337c-0.065-0.049-0.306-0.076-0.715-0.076H31.186z"/>
			<path fill="#1D1E1C" d="M36.812,0.942H36.28c-0.402,0-0.678,0.043-0.831,0.126c-0.15,0.086-0.251,0.251-0.297,0.503l-0.01,0.054
				h-0.276l0.126-0.971c0.582,0.051,1.188,0.08,1.82,0.08h0.702c0.635,0,1.242-0.028,1.82-0.08l0.129,0.971h-0.274l-0.011-0.054
				c-0.047-0.252-0.15-0.417-0.3-0.503c-0.154-0.083-0.433-0.126-0.831-0.126h-0.532v3.248c0,0.226,0.045,0.375,0.133,0.439
				c0.086,0.072,0.268,0.105,0.552,0.105h0.053v0.171h-2.175V4.733h0.051c0.286,0,0.471-0.033,0.556-0.105
				c0.086-0.064,0.128-0.213,0.128-0.439V0.942z"/>
			<path fill="#FDC600" d="M32.596,13.45c-0.26,0.27-1.662,1.748-2.584,2.725c0.172-0.701,0.81-3.26,0.823-3.322
				c-0.054-0.015-0.109-0.029-0.164-0.043c-0.091,0.205-1.102,2.476-1.391,3.131l-0.117-3.499c-0.074-0.01-0.15-0.02-0.225-0.027
				l-0.685,3.34l-1.412-3.458l-0.145,0.015l0.795,3.99l-3.266-3.491c-0.038,0.018-0.068,0.027-0.106,0.044l2.371,3.697l-3.584-1.775
				l-0.059,0.082l0.005,0.004l-0.01,0.001l-0.021,0.029l3.669,2.684c0.54,0.279,1.049,0.516,1.527,0.69
				c0.735,0.272,1.672,0.572,2.696,0.795c0.421,0.09,1.398,0.205,1.398,0.205l3.49-0.981l0.112-0.166l-3.708,0.385l4.237-2.474
				l-0.062-0.084c-0.001,0-0.86,0.306-1.919,0.716c-0.936,0.365-2.031,0.777-2.82,1.026l3.181-3.025l-0.08-0.055
				c-0.001,0.001-3.296,2.054-3.995,2.499c0.336-0.618,2.166-3.488,2.203-3.557C32.768,13.515,32.643,13.472,32.596,13.45"/>
			<path fill="#0092D4" d="M16.099,18.248c-0.73,0.749-1.973,1.612-2.788,2.024c-1.01,0.51-2.024,0.968-3.557,1.23
				c-0.879,0.151-1.998,0.213-2.895,0.133c-1.737-0.156-3.633-0.848-4.875-2.464c-0.69-0.903-1.048-2.058-0.975-3.211
				c0.066-1.056,0.886-2.038,1.708-2.488c-0.331,0.476-0.401,1.324-0.292,1.876c0.15,0.756,0.581,1.491,0.948,1.871
				c0.745,0.771,1.516,1.309,2.851,1.716c1.56,0.477,2.561,0.555,3.846,0.44c2.101-0.187,2.913-0.479,3.941-0.884
				c0.441-0.176,0.815-0.484,1.167-0.69C15.802,18.118,16.1,18.245,16.099,18.248"/>
		</g>
		<line fill="#1D1D1B" stroke="#1D1D1B" stroke-width="0.75" x1="112.748" y1="28.998" x2="1" y2="28.998"/>
	</g>
	<g>
		<path fill="#1D1D1B" d="M5.167,49.185h-3.85v-0.416h0.107c0.47,0,0.777-0.085,0.921-0.259c0.146-0.172,0.219-0.536,0.219-1.096
			v-6.869c0-0.557-0.073-0.922-0.219-1.095c-0.145-0.173-0.452-0.26-0.921-0.26H1.317v-0.415h3.85v0.415H5.066
			c-0.469,0-0.778,0.087-0.926,0.26c-0.147,0.173-0.221,0.538-0.221,1.095v6.869c0,0.555,0.073,0.919,0.221,1.094
			c0.148,0.175,0.457,0.261,0.926,0.261h0.101V49.185z"/>
		<path fill="#1D1D1B" d="M19.784,40.545v6.869c0,0.555,0.073,0.919,0.221,1.094s0.458,0.261,0.933,0.261h0.094v0.416h-3.173v-0.416
			h0.094c0.474,0,0.785-0.086,0.933-0.261s0.221-0.539,0.221-1.094v-6.869c0-0.556-0.073-0.922-0.221-1.095s-0.458-0.26-0.933-0.26
			h-0.094v-0.415h2.416l3.9,7.489l3.577-7.489h2.497v0.415H30.14c-0.467,0-0.773,0.087-0.92,0.26C29.073,39.623,29,39.989,29,40.545
			v6.608c0,0.732,0.073,1.185,0.22,1.356c0.147,0.174,0.453,0.259,0.92,0.259h0.107v0.416h-3.743v-0.416h0.081
			c0.479,0,0.793-0.085,0.942-0.259c0.15-0.172,0.225-0.536,0.225-1.096v-7.559l-4.001,8.31L19.784,40.545z"/>
		<path fill="#1D1D1B" d="M47.103,43.457c0.828,0.214,1.478,0.581,1.949,1.1c0.472,0.52,0.708,1.127,0.708,1.824
			c0,0.863-0.307,1.546-0.921,2.049c-0.613,0.504-1.444,0.755-2.495,0.755H42.26v-0.416h0.134c0.456,0,0.755-0.086,0.898-0.26
			c0.144-0.173,0.215-0.537,0.215-1.095v-6.855c0-0.565-0.071-0.936-0.215-1.108c-0.143-0.173-0.443-0.26-0.898-0.26H42.26v-0.415
			h3.645c0.882,0,1.49,0.025,1.825,0.08c0.335,0.053,0.635,0.169,0.899,0.349c0.507,0.349,0.761,0.845,0.761,1.489
			c0,0.6-0.19,1.129-0.57,1.59C48.44,42.743,47.867,43.135,47.103,43.457 M44.863,39.19v4.166h1.247
			c0.433,0,0.892-0.257,1.376-0.766c0.402-0.426,0.604-0.95,0.604-1.572c0-0.61-0.206-1.067-0.62-1.37
			c-0.412-0.306-1.034-0.458-1.865-0.458H44.863z M44.863,43.772v3.636c0,0.907,0.587,1.36,1.762,1.36
			c0.54,0,0.987-0.192,1.345-0.579c0.356-0.387,0.535-0.873,0.535-1.46c0-0.837-0.329-1.538-0.987-2.106
			c-0.657-0.566-1.465-0.851-2.421-0.851H44.863z"/>
		<path fill="#1D1D1B" d="M65.307,43.926v3.536c0,0.448,0.189,0.763,0.564,0.939c0.375,0.179,1.035,0.268,1.982,0.268h0.279
			c0.412,0,0.719-0.105,0.916-0.316c0.197-0.209,0.34-0.58,0.424-1.113l0.02-0.127h0.518l-0.209,2.26
			c-0.848-0.059-1.477-0.086-1.891-0.086c-0.439,0-0.957-0.019-1.555-0.054c-0.584-0.032-0.936-0.048-1.057-0.048h-2.594v-0.416
			h0.121c0.447,0,0.746-0.09,0.898-0.271c0.152-0.182,0.229-0.543,0.229-1.084v-6.848c0-0.576-0.072-0.949-0.211-1.119
			c-0.143-0.172-0.447-0.257-0.916-0.257h-0.121v-0.415h6.834l0.209,1.925H69.23l-0.02-0.142c-0.084-0.585-0.252-0.942-0.504-1.072
			c-0.25-0.13-0.906-0.194-1.967-0.194h-1.434v4.218h1.529c0.717,0,1.174-0.061,1.371-0.186c0.201-0.123,0.299-0.406,0.299-0.846
			v-0.115h0.518v2.711h-0.518v-0.102c0-0.393-0.082-0.675-0.248-0.846c-0.133-0.134-0.607-0.201-1.422-0.201H65.307z"/>
		<path fill="#1D1D1B" d="M90.266,48.964c-1.104,0.357-2.127,0.535-3.068,0.535c-1.564,0-2.803-0.497-3.721-1.495
			c-0.916-0.996-1.375-2.342-1.375-4.037c0-1.659,0.457-2.99,1.369-3.994s2.117-1.506,3.619-1.506c1.111,0,2.139,0.141,3.082,0.422
			l0.207,2.072h-0.502l-0.021-0.121c-0.105-0.62-0.393-1.104-0.863-1.444c-0.471-0.343-1.082-0.514-1.832-0.514
			c-1.033,0-1.883,0.478-2.549,1.429c-0.666,0.952-1,2.166-1,3.646c0,1.532,0.342,2.771,1.023,3.713
			c0.684,0.942,1.578,1.415,2.684,1.415c1.488,0,2.355-0.676,2.598-2.026l0.02-0.114h0.518L90.266,48.964z"/>
		<path fill="#1D1D1B" d="M102.646,39.19v-0.415h3.85v0.415h-0.105c-0.467,0-0.773,0.087-0.92,0.26
			c-0.148,0.173-0.221,0.538-0.221,1.095v4.675c0,1.431,0.244,2.431,0.734,3.001c0.49,0.576,1.162,0.864,2.016,0.864
			c0.77,0,1.369-0.273,1.799-0.82c0.428-0.545,0.646-1.451,0.656-2.718v-5.002c0-0.557-0.072-0.922-0.219-1.095
			c-0.145-0.173-0.455-0.26-0.93-0.26h-0.1v-0.415h3.326v0.415h-0.086c-0.475,0-0.787,0.087-0.936,0.26
			c-0.15,0.173-0.225,0.538-0.225,1.095v4.448c0,1.087-0.063,1.857-0.184,2.313s-0.377,0.872-0.77,1.247
			c-0.656,0.631-1.605,0.946-2.85,0.946c-1.057,0-1.896-0.251-2.518-0.751c-0.43-0.345-0.715-0.755-0.857-1.231
			c-0.143-0.476-0.215-1.241-0.215-2.297v-4.676c0-0.557-0.074-0.922-0.223-1.095s-0.459-0.26-0.93-0.26H102.646z"/>
	</g>
</g>
</svg>
